<svg xmlns="http://www.w3.org/2000/svg" viewBox="0 0 2387.86 148.85"><defs><style>.cls-1{fill:#fff;}</style></defs><title>Asset 22</title><g id="Layer_2" data-name="Layer 2"><g id="Layer_1-2" data-name="Layer 1"><path class="cls-1" d="M235.38,19.36a.72.72,0,0,0-.7-.7H176a.62.62,0,0,0-.6.38l0,.05a.07.07,0,0,0,0,.05.51.51,0,0,0-.06.22c-.64,9.27,2.6,18.52,10.1,24.27s17.7,6.54,26.86,5a27.47,27.47,0,0,0,14.39-7.53C233,35.05,236.32,28.18,235.38,19.36Zm-4.22.7c.19,7.48-2.7,13.05-8.5,17.73-2.53,2-5.35,4.32-8.43,5.48a25.47,25.47,0,0,1-10.8,1.13c-3-.28-7.13-.77-9.85-2.11a36.43,36.43,0,0,1-7.31-5c-5-4.32-6.32-10.93-6.64-17.25h51.53Zm2.62,7.29a19.25,19.25,0,0,1-3.46,7.48c-5.79,7.81-13.12,12.36-22.85,12.9-8.13.46-16.1-.7-22.44-6.24-6.15-5.37-8.7-13.42-8.32-21.43h1.52c.33,6.47,1.63,13.34,6.66,17.89a32,32,0,0,0,9,6,36.93,36.93,0,0,0,9.59,1.84c8.07.71,14.08-2.07,20.22-7s9.13-10.9,8.91-18.79a3.64,3.64,0,0,1,1.67.07c.21.13,0,1.41,0,2.3A21.44,21.44,0,0,1,233.78,27.35Z"/><path class="cls-1" d="M205.52,32.7c.72-.12,1-.92,1-1.56a10.8,10.8,0,0,0-.52-2.37.6.6,0,0,0-.67-.49.58.58,0,0,0-.68.49,16.4,16.4,0,0,0-.45,2.58C204.18,32.08,204.72,32.85,205.52,32.7Z"/><path class="cls-1" d="M213.75,24.13a11.69,11.69,0,0,0,2,1.82,1.18,1.18,0,0,0,1.79-.52c.23-.75-.41-1.4-1-1.73a16,16,0,0,0-2-.72h-.06a.57.57,0,0,0-.78.34A.64.64,0,0,0,213.75,24.13Z"/><path class="cls-1" d="M211.09,30.15a1.2,1.2,0,0,0,1.79.53,1.47,1.47,0,0,0,.14-1.84A10.14,10.14,0,0,0,211.51,27h0s0,0,0,0a.56.56,0,0,0-.84-.08.64.64,0,0,0-.33.77A13.46,13.46,0,0,0,211.09,30.15Z"/><path class="cls-1" d="M195.27,26a9.56,9.56,0,0,0,1.87-1.43,0,0,0,0,0,0,0,.7.7,0,0,0,.1-1.07.55.55,0,0,0-.7-.18,18.37,18.37,0,0,0-2.31.64,1.25,1.25,0,0,0-.8,1.76A1.42,1.42,0,0,0,195.27,26Z"/><path class="cls-1" d="M198.34,30.82c.74.23,1.4-.4,1.75-1a14.42,14.42,0,0,0,.75-2l0-.07v0s0-.08,0-.11,0-.07,0-.1a.75.75,0,0,0-.52-.65h-.21l-.14,0-.14.06-.06,0a.57.57,0,0,0-.13.08l-1,1a5.92,5.92,0,0,0-.87.94A1.19,1.19,0,0,0,198.34,30.82Z"/><path class="cls-1" d="M217.85,37.48c3.82-2.56,7.31-5.63,8.57-10.21a.7.7,0,0,0-1.35-.37c-1.16,4.21-4.42,7-7.92,9.37C216.4,36.77,217.1,38,217.85,37.48Z"/><path class="cls-1" d="M225.71,25.05c.64.63,1.63-.36,1-1l-.07-.07a.7.7,0,0,0-1,1Z"/><path class="cls-1" d="M343.69,6.1a.7.7,0,0,0-.95-.25l-50.42,30a.63.63,0,0,0-.32.63.13.13,0,0,0,0,.06.43.43,0,0,1,0,0,.66.66,0,0,0,.06.22c4.19,8.29,11.7,14.59,21.08,15.7S331.73,49.05,338.8,43a27.59,27.59,0,0,0,8.53-13.82C349.7,20.79,349,13.2,343.69,6.1Zm-3.26,2.75c4,6.34,4.35,12.6,1.75,19.58-1.14,3.05-2.39,6.46-4.45,9A25.38,25.38,0,0,1,329,43.94c-2.72,1.3-6.52,3-9.54,3.22a36.79,36.79,0,0,1-8.83-.55c-6.54-1.13-11-6.17-14.52-11.43l41.1-24.43Zm6,4.93a19.32,19.32,0,0,1,.84,8.2c-1,9.67-5,17.33-13.05,22.77-6.76,4.54-14.2,7.62-22.48,6.09-8-1.47-14.34-7.09-18.11-14.17l1.32-.78c3.58,5.4,8.22,10.64,14.86,12a32.27,32.27,0,0,0,10.77.6,37.26,37.26,0,0,0,9.18-3.32c7.3-3.51,11-9,13.79-16.37s2.29-14-1.93-20.71a3.55,3.55,0,0,1,1.46-.78c.25,0,.68,1.23,1.16,2A21.85,21.85,0,0,1,346.41,13.78Z"/><path class="cls-1" d="M324.85,32.82a1.47,1.47,0,0,0,0-1.85,10.25,10.25,0,0,0-1.65-1.77.59.59,0,0,0-.83-.08.57.57,0,0,0-.33.77,15.94,15.94,0,0,0,.93,2.44A1.22,1.22,0,0,0,324.85,32.82Z"/><path class="cls-1" d="M327.54,21.25a12.58,12.58,0,0,0,2.63.56c.72,0,1.47-.58,1.27-1.37s-1.07-1-1.76-1a16.42,16.42,0,0,0-2.09.41h-.07a.56.56,0,0,0-.48.69A.63.63,0,0,0,327.54,21.25Z"/><path class="cls-1" d="M328.33,27.78a1.2,1.2,0,0,0,1.81-.46,1.47,1.47,0,0,0-.82-1.65,10.06,10.06,0,0,0-2.23-.81H327a.56.56,0,0,0-.77.36.63.63,0,0,0,.11.82A13,13,0,0,0,328.33,27.78Z"/><path class="cls-1" d="M312.58,32.25a9.86,9.86,0,0,0,.88-2.18v0a.7.7,0,0,0-.46-1,.54.54,0,0,0-.69.21A18.17,18.17,0,0,0,310.64,31a1.24,1.24,0,0,0,.22,1.91A1.4,1.4,0,0,0,312.58,32.25Z"/><path class="cls-1" d="M317.71,34.87c.76-.18,1-1.06,1-1.75a13.36,13.36,0,0,0-.35-2.07s0-.05,0-.08h0a.37.37,0,0,0-.05-.11l0-.09a.77.77,0,0,0-.78-.3l-.11.06-.08,0a.31.31,0,0,0-.11.09.4.4,0,0,0-.1.12l0,.07A.39.39,0,0,0,317,31l-.36,1.37a4.81,4.81,0,0,0-.26,1.24A1.18,1.18,0,0,0,317.71,34.87Z"/><path class="cls-1" d="M337.89,30.63c2-4.15,3.4-8.57,2.15-13.15a.7.7,0,0,0-1.35.37c1.15,4.21-.22,8.29-2,12.1C336.28,30.76,337.5,31.45,337.89,30.63Z"/><path class="cls-1" d="M338.29,15.93a.7.7,0,0,0,.34-1.36l-.08,0a.7.7,0,0,0-.35,1.35Z"/><path class="cls-1" d="M472.36,33.88a.72.72,0,0,0-.46-.88l-56-17.34a.62.62,0,0,0-.68.19.08.08,0,0,0,0,0l0,0a.67.67,0,0,0-.12.2c-3.35,8.66-3,18.46,2.47,26.17s15,11.48,24.19,12.7a27.52,27.52,0,0,0,16-2.94C465.48,48.18,470.65,42.58,472.36,33.88Zm-4.23-.58c-2,7.2-6.44,11.67-13.36,14.42-3,1.2-6.39,2.55-9.68,2.74a25.27,25.27,0,0,1-10.65-2.11c-2.79-1.15-6.58-2.84-8.78-4.93a36.3,36.3,0,0,1-5.51-6.91c-3.55-5.62-2.81-12.32-1.25-18.45L464.58,32.2Zm.35,7.74A19.49,19.49,0,0,1,463,47.16c-7.84,5.75-16.19,7.92-25.64,5.57-7.91-2-15.18-5.43-19.6-12.59-4.28-7-4.34-15.4-1.61-22.94l1.45.45c-1.6,6.28-2.38,13.23,1.08,19.06a32,32,0,0,0,6.77,8.39A37.06,37.06,0,0,0,434,49.69c7.5,3.06,14.07,2.18,21.4-.73s11.94-7.71,14.07-15.32a3.76,3.76,0,0,1,1.57.56c.16.19-.46,1.34-.71,2.19A21,21,0,0,1,468.48,41Z"/><path class="cls-1" d="M439.9,37.8c.72.09,1.21-.6,1.41-1.2a10.89,10.89,0,0,0,.2-2.42.58.58,0,0,0-.49-.66.56.56,0,0,0-.79.26,16.14,16.14,0,0,0-1.2,2.34A1.22,1.22,0,0,0,439.9,37.8Z"/><path class="cls-1" d="M450.29,32a11.62,11.62,0,0,0,1.35,2.32,1.17,1.17,0,0,0,1.86,0c.44-.64,0-1.46-.46-2a14.26,14.26,0,0,0-1.7-1.28h0l0,0a.57.57,0,0,0-.85.1A.63.63,0,0,0,450.29,32Z"/><path class="cls-1" d="M446,37a1.2,1.2,0,0,0,1.55,1,1.47,1.47,0,0,0,.68-1.71,9.79,9.79,0,0,0-.9-2.2h0a.08.08,0,0,1,0,0,.57.57,0,0,0-.79-.32.61.61,0,0,0-.53.63A12.74,12.74,0,0,0,446,37Z"/><path class="cls-1" d="M432.1,28.31a9.09,9.09,0,0,0,2.2-.81h0a.7.7,0,0,0,.41-1,.54.54,0,0,0-.62-.38,17.36,17.36,0,0,0-2.39-.08c-.73.06-1.5.62-1.29,1.45S431.45,28.38,432.1,28.31Z"/><path class="cls-1" d="M433.59,33.87a1.65,1.65,0,0,0,2-.43,13.8,13.8,0,0,0,1.29-1.65.18.18,0,0,0,0-.07h0s0-.07,0-.1l0-.09a.76.76,0,0,0-.3-.78l-.11,0-.08,0-.14,0h-.16l-.07,0a.78.78,0,0,0-.14,0l-1.26.65a5,5,0,0,0-1.1.64A1.18,1.18,0,0,0,433.59,33.87Z"/><path class="cls-1" d="M450.26,46c4.4-1.32,8.64-3.22,11.2-7.22a.7.7,0,0,0-1.18-.76c-2.35,3.68-6.29,5.41-10.33,6.61C449.09,44.9,449.4,46.27,450.26,46Z"/><path class="cls-1" d="M461.44,36.45a.7.7,0,0,0,1.24-.65l0-.08a.7.7,0,0,0-1.24.65Z"/><path class="cls-1" d="M107.69,11.1a.7.7,0,0,0-1-.25l-50.42,30a.63.63,0,0,0-.32.63.13.13,0,0,0,0,.06.43.43,0,0,1,0,0,.66.66,0,0,0,.06.22c4.19,8.29,11.7,14.59,21.08,15.7S95.73,54.05,102.8,48a27.59,27.59,0,0,0,8.53-13.82C113.7,25.79,113,18.2,107.69,11.1Zm-3.26,2.75c4,6.34,4.35,12.6,1.75,19.58-1.14,3-2.39,6.46-4.45,9A25.38,25.38,0,0,1,93,48.94c-2.72,1.3-6.52,3-9.54,3.22a36.79,36.79,0,0,1-8.83-.55c-6.54-1.13-11-6.17-14.52-11.43l41.1-24.43Zm6,4.93a19.32,19.32,0,0,1,.84,8.2c-1,9.67-5,17.33-13,22.77-6.76,4.54-14.2,7.62-22.48,6.09-8-1.47-14.34-7.09-18.11-14.17l1.32-.78c3.58,5.4,8.22,10.64,14.86,12a32.27,32.27,0,0,0,10.77.6,37.26,37.26,0,0,0,9.18-3.32c7.3-3.51,11-9,13.79-16.37s2.29-14-1.93-20.71a3.55,3.55,0,0,1,1.46-.78c.25,0,.68,1.23,1.16,2A21.85,21.85,0,0,1,110.41,18.78Z"/><path class="cls-1" d="M88.85,37.82A1.47,1.47,0,0,0,88.9,36a10.25,10.25,0,0,0-1.65-1.77.59.59,0,0,0-.83-.08.57.57,0,0,0-.33.77A15.94,15.94,0,0,0,87,37.33,1.22,1.22,0,0,0,88.85,37.82Z"/><path class="cls-1" d="M91.54,26.25a12.58,12.58,0,0,0,2.63.56c.72,0,1.47-.58,1.27-1.37s-1.07-1-1.76-1a16.42,16.42,0,0,0-2.09.41h-.07a.56.56,0,0,0-.48.69A.63.63,0,0,0,91.54,26.25Z"/><path class="cls-1" d="M92.33,32.78a1.2,1.2,0,0,0,1.81-.46,1.47,1.47,0,0,0-.82-1.65,10.06,10.06,0,0,0-2.23-.81H91a.56.56,0,0,0-.77.36.63.63,0,0,0,.11.82A13,13,0,0,0,92.33,32.78Z"/><path class="cls-1" d="M76.58,37.25a9.86,9.86,0,0,0,.88-2.18v0a.7.7,0,0,0-.46-1,.54.54,0,0,0-.69.21A18.17,18.17,0,0,0,74.64,36a1.24,1.24,0,0,0,.22,1.91A1.4,1.4,0,0,0,76.58,37.25Z"/><path class="cls-1" d="M81.71,39.87c.76-.18,1-1.06,1-1.75a13.36,13.36,0,0,0-.35-2.07s0,0,0-.08h0a.37.37,0,0,0,0-.11l0-.09a.77.77,0,0,0-.78-.3l-.11.06-.08,0a.31.31,0,0,0-.11.09.4.4,0,0,0-.1.12l0,.07A.39.39,0,0,0,81,36l-.36,1.37a4.81,4.81,0,0,0-.26,1.24A1.18,1.18,0,0,0,81.71,39.87Z"/><path class="cls-1" d="M101.89,35.63c2-4.15,3.4-8.57,2.15-13.15a.7.7,0,0,0-1.35.37c1.15,4.21-.22,8.29-2,12.1C100.28,35.76,101.5,36.45,101.89,35.63Z"/><path class="cls-1" d="M102.29,20.93a.7.7,0,0,0,.34-1.36l-.08,0a.7.7,0,0,0-.35,1.35Z"/><path class="cls-1" d="M526.76,22.08a.72.72,0,0,0,.12,1l46.23,36.08a.61.61,0,0,0,.7.07l.06,0,0,0a.79.79,0,0,0,.18-.14c6.21-6.92,9.35-16.2,7-25.35s-9.93-16-18.12-20.45a27.46,27.46,0,0,0-16-2.92C538.27,11.15,531.44,14.55,526.76,22.08Zm3.75,2c4.46-6,10.16-8.63,17.61-8.74,3.25-.05,6.88-.12,10,.87A25.34,25.34,0,0,1,567.35,22c2.2,2.06,5.15,5,6.47,7.72a36.76,36.76,0,0,1,2.7,8.42c1.32,6.51-1.75,12.51-5.38,17.69l-37.7-29.42Zm2.43-7.36A19.1,19.1,0,0,1,540.27,13c9.37-2.6,17.94-1.67,26,3.88,6.69,4.64,12.26,10.46,13.85,18.72,1.54,8-1.4,15.95-6.63,22l-1.2-.94c3.73-5.31,6.92-11.53,5.76-18.2a31.93,31.93,0,0,0-3.36-10.25,36.77,36.77,0,0,0-6.43-7.35c-5.92-5.52-12.37-7-20.26-6.9s-13.9,3-18.59,9.33c-.53-.35-1.14-.76-1.26-1.08s.9-1.08,1.43-1.8A21.22,21.22,0,0,1,532.94,16.76Z"/><path class="cls-1" d="M558.51,29.93a1.48,1.48,0,0,0-1.75.62,10.94,10.94,0,0,0-1,2.18.59.59,0,0,0,.23.8.58.58,0,0,0,.84,0,18,18,0,0,0,1.94-1.76A1.22,1.22,0,0,0,558.51,29.93Z"/><path class="cls-1" d="M546.74,31.63a11.2,11.2,0,0,0-.43-2.65,1.17,1.17,0,0,0-1.73-.69,1.62,1.62,0,0,0-.27,2,18.8,18.8,0,0,0,1.14,1.8h0l0,0a.56.56,0,0,0,.82.21A.62.62,0,0,0,546.74,31.63Z"/><path class="cls-1" d="M552.55,28.52A1.22,1.22,0,0,0,551.46,27c-.73,0-1.11.73-1.24,1.37a9.42,9.42,0,0,0,.06,2.37h0v.05a.58.58,0,0,0,.62.59.63.63,0,0,0,.73-.4A14.06,14.06,0,0,0,552.55,28.52Z"/><path class="cls-1" d="M562.43,41.56a9.72,9.72,0,0,0-2.35,0h0a.71.71,0,0,0-.74.79.55.55,0,0,0,.44.57,20.36,20.36,0,0,0,2.22.92,1.26,1.26,0,0,0,1.71-.9C563.77,42.17,563.06,41.72,562.43,41.56Z"/><path class="cls-1" d="M563,35.83a1.65,1.65,0,0,0-2-.29,13.27,13.27,0,0,0-1.8,1.09l-.07,0h0a.2.2,0,0,0-.08.08l-.07.07a.76.76,0,0,0,0,.83l.09.08.07.06.12.07.15.05h.07a.38.38,0,0,0,.15,0l1.41-.16a5.27,5.27,0,0,0,1.25-.21A1.18,1.18,0,0,0,563,35.83Z"/><path class="cls-1" d="M551.72,18.58c-4.58-.33-9.22-.06-13,2.77a.7.7,0,0,0,.84,1.13c3.5-2.61,7.8-2.82,12-2.52C552.43,20,552.63,18.64,551.72,18.58Z"/><path class="cls-1" d="M537.88,23.55a.7.7,0,0,0-1.39.17v.09a.7.7,0,0,0,1.39-.17Z"/><path class="cls-1" d="M834,29.11a.72.72,0,0,0-.51-.85L776.66,14a.64.64,0,0,0-.67.22l0,0,0,0a1,1,0,0,0-.11.2c-2.88,8.84-2,18.6,3.88,26s15.57,10.67,24.84,11.38a27.49,27.49,0,0,0,15.79-3.79C827.94,43.76,832.8,37.9,834,29.11Zm-4.26-.35c-1.64,7.3-5.8,12-12.57,15.12-3,1.36-6.24,2.89-9.51,3.26A25.31,25.31,0,0,1,797,45.6c-2.85-1-6.73-2.48-9-4.45a36.84,36.84,0,0,1-5.87-6.6c-3.84-5.42-3.46-12.15-2.23-18.35l46.36,11.66Zm.76,7.72a19.14,19.14,0,0,1-5.18,6.4c-7.52,6.16-15.74,8.78-25.3,6.94-8-1.54-15.44-4.6-20.24-11.52-4.66-6.71-5.17-15.14-2.85-22.82l1.48.37c-1.26,6.36-1.67,13.34,2.1,19a31.87,31.87,0,0,0,7.21,8A36.63,36.63,0,0,0,796.61,47c7.65,2.66,14.16,1.43,21.32-1.88s11.51-8.34,13.23-16a3.56,3.56,0,0,1,1.59.48c.18.17-.38,1.35-.58,2.22A21.18,21.18,0,0,1,830.54,36.48Z"/><path class="cls-1" d="M801.83,34.77c.73.06,1.18-.65,1.35-1.27a10.88,10.88,0,0,0,.07-2.42.59.59,0,0,0-.53-.64.58.58,0,0,0-.78.31,16.41,16.41,0,0,0-1.06,2.39A1.22,1.22,0,0,0,801.83,34.77Z"/><path class="cls-1" d="M811.9,28.46a11.78,11.78,0,0,0,1.47,2.25,1.19,1.19,0,0,0,1.87-.07,1.63,1.63,0,0,0-.57-1.92,14,14,0,0,0-1.77-1.19h0l0,0a.56.56,0,0,0-.84.15A.62.62,0,0,0,811.9,28.46Z"/><path class="cls-1" d="M807.85,33.65a1.21,1.21,0,0,0,1.61,1,1.5,1.5,0,0,0,.59-1.75,10.32,10.32,0,0,0-1-2.15h0l0,0a.56.56,0,0,0-.8-.29.63.63,0,0,0-.5.66A13.47,13.47,0,0,0,807.85,33.65Z"/><path class="cls-1" d="M793.54,25.72a9.51,9.51,0,0,0,2.15-.93h0a.7.7,0,0,0,.35-1,.54.54,0,0,0-.63-.35,19.19,19.19,0,0,0-2.4,0c-.73.11-1.46.7-1.2,1.51A1.41,1.41,0,0,0,793.54,25.72Z"/><path class="cls-1" d="M795.33,31.19c.66.41,1.45,0,1.93-.53a15.67,15.67,0,0,0,1.21-1.72l0-.07h0s0-.08,0-.11a.32.32,0,0,0,0-.09.75.75,0,0,0-.34-.76l-.11,0-.09,0-.14,0-.16,0-.06,0a.58.58,0,0,0-.14.05l-1.22.72a5.06,5.06,0,0,0-1.07.7A1.18,1.18,0,0,0,795.33,31.19Z"/><path class="cls-1" d="M812.63,42.41c4.32-1.55,8.45-3.68,10.79-7.81a.7.7,0,0,0-1.22-.69c-2.15,3.8-6,5.74-10,7.16C811.39,41.37,811.77,42.72,812.63,42.41Z"/><path class="cls-1" d="M823.28,32.27a.7.7,0,0,0,1.2-.72l-.05-.08a.7.7,0,0,0-1.2.72Z"/><path class="cls-1" d="M933.07,4.74a.72.72,0,0,0-1,0L889.55,45.08a.62.62,0,0,0-.18.68l0,.06s0,0,0,0a1.36,1.36,0,0,0,.11.2c5.92,7.16,14.63,11.64,24,10.65s17.35-7.44,22.92-14.88a27.48,27.48,0,0,0,5.25-15.37C942.17,17.74,939.83,10.49,933.07,4.74ZM930.5,8.15c5.28,5.3,7,11.33,6,18.71-.43,3.22-.9,6.82-2.34,9.78a25.58,25.58,0,0,1-7.06,8.26c-2.37,1.86-5.7,4.34-8.6,5.24a36.35,36.35,0,0,1-8.72,1.42c-6.63.34-12.11-3.58-16.69-7.94L927.8,10.71Zm6.92,3.49a19.16,19.16,0,0,1,2.63,7.81c1.18,9.65-1,18-7.69,25.08-5.58,5.93-12.16,10.57-20.57,10.92-8.16.34-15.56-3.75-20.8-9.82l1.11-1.05c4.69,4.47,10.37,8.56,17.14,8.39a32,32,0,0,0,10.64-1.79,36.61,36.61,0,0,0,8.22-5.27c6.34-5,8.78-11.19,9.83-19s-.88-14.19-6.47-19.77c.42-.48.92-1,1.26-1.09s.94,1,1.56,1.68A21.52,21.52,0,0,1,937.42,11.64Z"/><path class="cls-1" d="M920.6,35a1.46,1.46,0,0,0-.36-1.82,10.22,10.22,0,0,0-2-1.36.59.59,0,0,0-.82.11.57.57,0,0,0-.16.82,16.18,16.18,0,0,0,1.45,2.18A1.22,1.22,0,0,0,920.6,35Z"/><path class="cls-1" d="M920.66,23.09a11.5,11.5,0,0,0,2.69,0,1.18,1.18,0,0,0,.94-1.61,1.64,1.64,0,0,0-1.93-.56,17,17,0,0,0-2,.86h0l0,0a.56.56,0,0,0-.32.78A.63.63,0,0,0,920.66,23.09Z"/><path class="cls-1" d="M922.88,29.29a1.21,1.21,0,0,0,1.67-.85c.09-.73-.56-1.21-1.16-1.43a9.84,9.84,0,0,0-2.36-.29H921a.56.56,0,0,0-.67.53.61.61,0,0,0,.29.77A13.53,13.53,0,0,0,922.88,29.29Z"/><path class="cls-1" d="M908.52,37.12a10,10,0,0,0,.37-2.31s0,0,0,0a.69.69,0,0,0-.66-.84.54.54,0,0,0-.63.35,17.19,17.19,0,0,0-1.24,2.05,1.26,1.26,0,0,0,.63,1.83C907.71,38.36,908.26,37.72,908.52,37.12Z"/><path class="cls-1" d="M914.09,38.55a1.65,1.65,0,0,0,.59-1.93,15.59,15.59,0,0,0-.81-1.94l0-.07v0a.28.28,0,0,0-.07-.09l0-.07a.74.74,0,0,0-.82-.12l-.1.07-.07.06a.44.44,0,0,0-.08.11.61.61,0,0,0-.07.14.19.19,0,0,0,0,.07.7.7,0,0,0,0,.14c0,.48,0,1,0,1.42a5.4,5.4,0,0,0,0,1.27A1.19,1.19,0,0,0,914.09,38.55Z"/><path class="cls-1" d="M932.84,30c1-4.48,1.42-9.11-.82-13.3a.7.7,0,0,0-1.23.66c2.05,3.85,1.62,8.14.7,12.25C931.29,30.43,932.64,30.83,932.84,30Z"/><path class="cls-1" d="M930,15.52a.7.7,0,0,0,0-1.4h-.09a.7.7,0,0,0,0,1.4Z"/><path class="cls-1" d="M1058.75,31.43a.71.71,0,0,0-.31-.94L1006.09,4.08a.63.63,0,0,0-.71.07l0,0s0,0,0,0a.63.63,0,0,0-.15.17c-4.75,8-6,17.7-1.92,26.22S1016.1,44.42,1025,47.15a27.51,27.51,0,0,0,16.24-.24C1049.59,44.39,1055.62,39.73,1058.75,31.43Zm-4.07-1.27c-3.21,6.76-8.29,10.44-15.58,12-3.18.67-6.72,1.45-10,1.09A25.4,25.4,0,0,1,1019,39.4c-2.56-1.6-6-3.9-7.84-6.33a36.24,36.24,0,0,1-4.28-7.73c-2.56-6.13-.72-12.61,1.84-18.39l42.69,21.53Zm-1,7.69a19.28,19.28,0,0,1-6.46,5.12c-8.69,4.36-17.28,5.12-26.21,1.22-7.47-3.25-14.06-7.87-17.22-15.67-3.08-7.57-1.73-15.91,2.22-22.89l1.36.69c-2.62,5.92-4.55,12.64-2.11,19a31.88,31.88,0,0,0,5.28,9.4,37.23,37.23,0,0,0,7.73,6c6.89,4.27,13.5,4.49,21.22,2.83s13.06-5.61,16.42-12.76a3.73,3.73,0,0,1,1.45.82c.13.21-.67,1.23-1.05,2A21.8,21.8,0,0,1,1053.73,37.85Z"/><path class="cls-1" d="M1026.09,29.9c.7.21,1.29-.39,1.59-.95a10.4,10.4,0,0,0,.6-2.35.59.59,0,0,0-.38-.74.58.58,0,0,0-.82.13,16.55,16.55,0,0,0-1.56,2.1A1.22,1.22,0,0,0,1026.09,29.9Z"/><path class="cls-1" d="M1037.3,26a12,12,0,0,0,.94,2.52,1.18,1.18,0,0,0,1.83.34,1.63,1.63,0,0,0-.13-2,15.33,15.33,0,0,0-1.47-1.55h0l0,0a.56.56,0,0,0-.85,0A.61.61,0,0,0,1037.3,26Z"/><path class="cls-1" d="M1032.21,30.12c0,.73.56,1.47,1.36,1.29a1.48,1.48,0,0,0,1-1.58,10,10,0,0,0-.52-2.32h0a.43.43,0,0,1,0-.05.57.57,0,0,0-.72-.45.64.64,0,0,0-.64.53A12.83,12.83,0,0,0,1032.21,30.12Z"/><path class="cls-1" d="M1020,19.25a9.7,9.7,0,0,0,2.31-.43h0a.7.7,0,0,0,.57-.91.53.53,0,0,0-.54-.48A17.45,17.45,0,0,0,1020,17c-.73-.06-1.58.35-1.51,1.21S1019.33,19.21,1020,19.25Z"/><path class="cls-1" d="M1020.52,25a1.64,1.64,0,0,0,2-.1,13.89,13.89,0,0,0,1.56-1.41l.06-.06h0a.53.53,0,0,0,.06-.1l0-.07a.75.75,0,0,0-.16-.82.53.53,0,0,0-.1-.06l-.08-.05-.13,0a.44.44,0,0,0-.16,0h-.07a.39.39,0,0,0-.15,0l-1.35.43a5.71,5.71,0,0,0-1.19.45A1.18,1.18,0,0,0,1020.52,25Z"/><path class="cls-1" d="M1035,39.72c4.55-.57,9-1.74,12.24-5.26a.7.7,0,0,0-1-.94c-2.93,3.24-7.11,4.28-11.29,4.8C1034,38.43,1034.05,39.83,1035,39.72Z"/><path class="cls-1" d="M1047.56,32.15a.7.7,0,0,0,1.33-.43l0-.09a.7.7,0,0,0-1.33.44Z"/><path class="cls-1" d="M697.08,9.75a.72.72,0,0,0-1,0L653.54,50.07a.61.61,0,0,0-.17.68s0,0,0,.06l0,0a.81.81,0,0,0,.11.2c5.91,7.16,14.63,11.65,24,10.66s17.35-7.44,22.92-14.88a27.46,27.46,0,0,0,5.26-15.36C706.18,22.75,703.84,15.5,697.08,9.75Zm-2.57,3.4c5.28,5.3,7,11.33,6,18.72-.43,3.22-.9,6.81-2.34,9.77a25.47,25.47,0,0,1-7.06,8.26c-2.37,1.86-5.71,4.34-8.6,5.24a36.85,36.85,0,0,1-8.73,1.42c-6.63.34-12.11-3.59-16.69-8l34.7-32.9Zm6.92,3.49a19.41,19.41,0,0,1,2.63,7.81c1.17,9.65-1,18-7.7,25.09-5.59,5.92-12.16,10.56-20.58,10.91-8.16.33-15.56-3.75-20.79-9.83l1.11-1c4.69,4.47,10.36,8.56,17.14,8.4a31.9,31.9,0,0,0,10.63-1.79,36.61,36.61,0,0,0,8.22-5.27c6.35-5,8.8-11.19,9.84-19s-.87-14.18-6.46-19.76a3.72,3.72,0,0,1,1.26-1.1c.24,0,.94,1.06,1.56,1.69A21.12,21.12,0,0,1,701.43,16.64Z"/><path class="cls-1" d="M684.6,40a1.47,1.47,0,0,0-.35-1.82,10.6,10.6,0,0,0-2-1.36.59.59,0,0,0-.82.11.58.58,0,0,0-.16.82,16.84,16.84,0,0,0,1.45,2.18A1.22,1.22,0,0,0,684.6,40Z"/><path class="cls-1" d="M684.67,28.09a11.52,11.52,0,0,0,2.69,0,1.18,1.18,0,0,0,.94-1.61,1.65,1.65,0,0,0-1.93-.56,17.92,17.92,0,0,0-2,.86h0l0,0a.57.57,0,0,0-.33.78A.63.63,0,0,0,684.67,28.09Z"/><path class="cls-1" d="M686.88,34.29a1.21,1.21,0,0,0,1.67-.85c.09-.72-.55-1.21-1.16-1.43a9.84,9.84,0,0,0-2.36-.29H685a.56.56,0,0,0-.67.53.62.62,0,0,0,.29.77A13.93,13.93,0,0,0,686.88,34.29Z"/><path class="cls-1" d="M672.52,42.12a10,10,0,0,0,.37-2.32s0,0,0,0a.71.71,0,0,0-.67-.85.55.55,0,0,0-.63.35,17.31,17.31,0,0,0-1.24,2.06,1.25,1.25,0,0,0,.63,1.82C671.71,43.35,672.26,42.72,672.52,42.12Z"/><path class="cls-1" d="M678.09,43.55a1.65,1.65,0,0,0,.59-1.93,15.59,15.59,0,0,0-.81-1.94l0-.07v0s0-.06-.07-.09a.56.56,0,0,0,0-.08.77.77,0,0,0-.82-.12.7.7,0,0,0-.1.08l-.07.06a.44.44,0,0,0-.08.11.61.61,0,0,0-.07.14.64.64,0,0,0,0,.07.7.7,0,0,0,0,.14c0,.47,0,.94,0,1.42a5.4,5.4,0,0,0,0,1.27A1.19,1.19,0,0,0,678.09,43.55Z"/><path class="cls-1" d="M696.84,35c1-4.48,1.42-9.11-.81-13.3a.7.7,0,0,0-1.24.66c2.06,3.86,1.63,8.14.7,12.25C695.3,35.44,696.64,35.84,696.84,35Z"/><path class="cls-1" d="M694,20.52a.7.7,0,0,0,0-1.4h-.09a.7.7,0,0,0,0,1.4Z"/><path class="cls-1" d="M1112.76,24.08a.72.72,0,0,0,.12,1l46.23,36.08a.61.61,0,0,0,.7.07l.06,0,0,0a.79.79,0,0,0,.18-.14c6.21-6.92,9.35-16.2,7-25.35s-9.93-16-18.12-20.45a27.46,27.46,0,0,0-16-2.92C1124.27,13.15,1117.44,16.55,1112.76,24.08Zm3.75,2c4.46-6,10.16-8.63,17.61-8.74,3.25-.05,6.88-.12,10,.87a25.34,25.34,0,0,1,9.21,5.75c2.2,2.06,5.15,5,6.47,7.72a36.76,36.76,0,0,1,2.7,8.42c1.32,6.51-1.75,12.51-5.38,17.69l-37.7-29.42Zm2.43-7.36a19.1,19.1,0,0,1,7.33-3.76c9.37-2.6,17.94-1.67,26,3.88,6.69,4.64,12.26,10.46,13.85,18.72,1.54,8-1.4,15.95-6.63,22l-1.2-.94c3.73-5.31,6.92-11.53,5.76-18.2a31.93,31.93,0,0,0-3.36-10.25,36.77,36.77,0,0,0-6.43-7.35c-5.92-5.52-12.37-7-20.26-6.9s-13.9,3-18.59,9.33c-.53-.35-1.14-.76-1.26-1.08s.9-1.08,1.43-1.8A21.22,21.22,0,0,1,1118.94,18.76Z"/><path class="cls-1" d="M1144.51,31.93a1.48,1.48,0,0,0-1.75.62,10.94,10.94,0,0,0-1,2.18.59.59,0,0,0,.23.8.58.58,0,0,0,.84,0,18,18,0,0,0,1.94-1.76A1.22,1.22,0,0,0,1144.51,31.93Z"/><path class="cls-1" d="M1132.74,33.63a11.2,11.2,0,0,0-.43-2.65,1.17,1.17,0,0,0-1.73-.69,1.62,1.62,0,0,0-.27,2,18.8,18.8,0,0,0,1.14,1.8h0l0,0a.56.56,0,0,0,.82.21A.62.62,0,0,0,1132.74,33.63Z"/><path class="cls-1" d="M1138.55,30.52a1.22,1.22,0,0,0-1.09-1.53c-.73,0-1.11.73-1.24,1.37a9.42,9.42,0,0,0,.06,2.37h0v0a.58.58,0,0,0,.62.59.63.63,0,0,0,.73-.4A14.06,14.06,0,0,0,1138.55,30.52Z"/><path class="cls-1" d="M1148.43,43.56a9.72,9.72,0,0,0-2.35,0h0a.71.71,0,0,0-.74.79.55.55,0,0,0,.44.57,20.36,20.36,0,0,0,2.22.92,1.26,1.26,0,0,0,1.71-.9C1149.77,44.17,1149.06,43.72,1148.43,43.56Z"/><path class="cls-1" d="M1149,37.83a1.65,1.65,0,0,0-2-.29,13.27,13.27,0,0,0-1.8,1.09l-.07,0h0a.2.2,0,0,0-.08.08l-.07.07a.76.76,0,0,0,0,.83l.09.08.07.06.12.07.15.05h.07a.38.38,0,0,0,.15,0l1.41-.16a5.27,5.27,0,0,0,1.25-.21A1.18,1.18,0,0,0,1149,37.83Z"/><path class="cls-1" d="M1137.72,20.58c-4.58-.33-9.22-.06-13,2.77a.7.7,0,0,0,.84,1.13c3.5-2.61,7.8-2.82,12-2.52C1138.43,22,1138.63,20.64,1137.72,20.58Z"/><path class="cls-1" d="M1123.88,25.55a.7.7,0,0,0-1.39.17v.09a.7.7,0,0,0,1.39-.17Z"/><path class="cls-1" d="M1425.38,15.36a.72.72,0,0,0-.7-.7H1366a.62.62,0,0,0-.6.38l0,.05a.07.07,0,0,0,0,.05.51.51,0,0,0-.06.22c-.64,9.27,2.6,18.52,10.1,24.27s17.7,6.54,26.86,5a27.47,27.47,0,0,0,14.39-7.53C1423,31.05,1426.32,24.18,1425.38,15.36Zm-4.22.7c.19,7.48-2.7,13.05-8.5,17.73-2.53,2-5.35,4.32-8.43,5.48a25.47,25.47,0,0,1-10.8,1.13c-3-.28-7.13-.77-9.85-2.11a36.43,36.43,0,0,1-7.31-5c-5-4.32-6.32-10.93-6.64-17.25h51.53Zm2.62,7.29a19.25,19.25,0,0,1-3.46,7.48c-5.79,7.81-13.12,12.36-22.85,12.9-8.13.46-16.1-.7-22.44-6.24-6.15-5.37-8.7-13.42-8.32-21.43h1.52c.33,6.47,1.63,13.34,6.66,17.89a32,32,0,0,0,8.95,6,36.93,36.93,0,0,0,9.59,1.84c8.07.71,14.08-2.07,20.22-7s9.13-10.9,8.91-18.79a3.64,3.64,0,0,1,1.67.07c.21.13,0,1.41,0,2.3A21.44,21.44,0,0,1,1423.78,23.35Z"/><path class="cls-1" d="M1395.52,28.7c.72-.12,1-.92,1-1.56a10.8,10.8,0,0,0-.52-2.37.6.6,0,0,0-.67-.49.58.58,0,0,0-.68.49,16.4,16.4,0,0,0-.45,2.58C1394.18,28.08,1394.72,28.85,1395.52,28.7Z"/><path class="cls-1" d="M1403.75,20.13a11.69,11.69,0,0,0,2,1.82,1.18,1.18,0,0,0,1.79-.52c.23-.75-.41-1.4-1-1.73a16,16,0,0,0-2-.72h-.06a.57.57,0,0,0-.78.34A.64.64,0,0,0,1403.75,20.13Z"/><path class="cls-1" d="M1401.09,26.15a1.2,1.2,0,0,0,1.79.53,1.47,1.47,0,0,0,.14-1.84,10.14,10.14,0,0,0-1.51-1.83h0s0,0,0,0a.56.56,0,0,0-.84-.08.64.64,0,0,0-.33.77A13.46,13.46,0,0,0,1401.09,26.15Z"/><path class="cls-1" d="M1385.27,22a9.56,9.56,0,0,0,1.87-1.43,0,0,0,0,0,0,0,.7.7,0,0,0,.1-1.07.55.55,0,0,0-.7-.18,18.37,18.37,0,0,0-2.31.64,1.25,1.25,0,0,0-.8,1.76A1.42,1.42,0,0,0,1385.27,22Z"/><path class="cls-1" d="M1388.34,26.82c.74.23,1.4-.4,1.75-1a14.42,14.42,0,0,0,.75-2l0-.07v0s0-.08,0-.11,0-.07,0-.1a.75.75,0,0,0-.52-.65h-.21l-.14,0-.14.06-.06,0a.57.57,0,0,0-.13.08l-1,1a5.92,5.92,0,0,0-.87.94A1.19,1.19,0,0,0,1388.34,26.82Z"/><path class="cls-1" d="M1407.85,33.48c3.82-2.56,7.31-5.63,8.57-10.21a.7.7,0,0,0-1.35-.37c-1.16,4.21-4.42,7-7.92,9.37C1406.4,32.77,1407.1,34,1407.85,33.48Z"/><path class="cls-1" d="M1415.71,21.05c.64.63,1.63-.36,1-1l-.07-.07a.7.7,0,0,0-1,1Z"/><path class="cls-1" d="M1533.69,2.1a.7.7,0,0,0-1-.25l-50.42,30a.63.63,0,0,0-.32.63.13.13,0,0,0,0,.06.43.43,0,0,1,0,0,.66.66,0,0,0,.06.22c4.19,8.29,11.7,14.59,21.08,15.7s18.57-3.42,25.64-9.44a27.59,27.59,0,0,0,8.53-13.82C1539.7,16.79,1539,9.2,1533.69,2.1Zm-3.26,2.75c4,6.34,4.35,12.6,1.75,19.58-1.14,3.05-2.39,6.46-4.45,9a25.38,25.38,0,0,1-8.71,6.49c-2.72,1.3-6.52,3-9.54,3.22a36.79,36.79,0,0,1-8.83-.55c-6.54-1.13-11-6.17-14.52-11.43l41.1-24.43Zm6,4.93a19.32,19.32,0,0,1,.84,8.2c-1,9.67-5,17.33-13,22.77-6.76,4.54-14.2,7.62-22.48,6.09-8-1.47-14.34-7.09-18.11-14.17l1.32-.78c3.58,5.4,8.22,10.64,14.86,12a32.27,32.27,0,0,0,10.77.6,37.26,37.26,0,0,0,9.18-3.32c7.3-3.51,11-9,13.79-16.37s2.29-14-1.93-20.71a3.55,3.55,0,0,1,1.46-.78c.25,0,.68,1.23,1.16,2A21.85,21.85,0,0,1,1536.41,9.78Z"/><path class="cls-1" d="M1514.85,28.82a1.47,1.47,0,0,0,.05-1.85,10.25,10.25,0,0,0-1.65-1.77.59.59,0,0,0-.83-.08.57.57,0,0,0-.33.77,15.94,15.94,0,0,0,.93,2.44A1.22,1.22,0,0,0,1514.85,28.82Z"/><path class="cls-1" d="M1517.54,17.25a12.58,12.58,0,0,0,2.63.56c.72,0,1.47-.58,1.27-1.37s-1.07-1-1.76-1a16.42,16.42,0,0,0-2.09.41h-.07a.56.56,0,0,0-.48.69A.63.63,0,0,0,1517.54,17.25Z"/><path class="cls-1" d="M1518.33,23.78a1.2,1.2,0,0,0,1.81-.46,1.47,1.47,0,0,0-.82-1.65,10.06,10.06,0,0,0-2.23-.81H1517a.56.56,0,0,0-.77.36.63.63,0,0,0,.11.82A13,13,0,0,0,1518.33,23.78Z"/><path class="cls-1" d="M1502.58,28.25a9.86,9.86,0,0,0,.88-2.18v0a.7.7,0,0,0-.46-1,.54.54,0,0,0-.69.21,18.17,18.17,0,0,0-1.67,1.73,1.24,1.24,0,0,0,.22,1.91A1.4,1.4,0,0,0,1502.58,28.25Z"/><path class="cls-1" d="M1507.71,30.87c.76-.18,1-1.06,1-1.75a13.36,13.36,0,0,0-.35-2.07s0-.05,0-.08h0a.37.37,0,0,0,0-.11l0-.09a.77.77,0,0,0-.78-.3l-.11.06-.08,0a.31.31,0,0,0-.11.09.4.4,0,0,0-.1.12l0,.07a.39.39,0,0,0-.06.13l-.36,1.37a4.81,4.81,0,0,0-.26,1.24A1.18,1.18,0,0,0,1507.71,30.87Z"/><path class="cls-1" d="M1527.89,26.63c2-4.15,3.4-8.57,2.15-13.15a.7.7,0,0,0-1.35.37c1.15,4.21-.22,8.29-2,12.1C1526.28,26.76,1527.5,27.45,1527.89,26.63Z"/><path class="cls-1" d="M1528.29,11.93a.7.7,0,0,0,.34-1.36l-.08,0a.7.7,0,0,0-.35,1.35Z"/><path class="cls-1" d="M1662.36,29.88a.72.72,0,0,0-.46-.88l-56-17.34a.62.62,0,0,0-.68.19.08.08,0,0,0,0,0l0,0a.67.67,0,0,0-.12.2c-3.35,8.66-3,18.46,2.47,26.17s15,11.48,24.19,12.7a27.52,27.52,0,0,0,16-2.94C1655.48,44.18,1660.65,38.58,1662.36,29.88Zm-4.23-.58c-2,7.2-6.44,11.67-13.36,14.42-3,1.2-6.39,2.55-9.68,2.74a25.27,25.27,0,0,1-10.65-2.11c-2.79-1.15-6.58-2.84-8.78-4.93a36.3,36.3,0,0,1-5.51-6.91c-3.55-5.62-2.81-12.32-1.25-18.45l45.68,14.14Zm.35,7.74a19.49,19.49,0,0,1-5.52,6.12c-7.84,5.75-16.19,7.92-25.64,5.57-7.91-2-15.18-5.43-19.6-12.59-4.28-6.95-4.34-15.4-1.61-22.94l1.45.45c-1.6,6.28-2.38,13.23,1.08,19.06a32,32,0,0,0,6.77,8.39,37.06,37.06,0,0,0,8.61,4.59c7.5,3.06,14.07,2.18,21.4-.73s11.94-7.71,14.07-15.32a3.76,3.76,0,0,1,1.57.56c.16.19-.46,1.34-.71,2.19A21,21,0,0,1,1658.48,37Z"/><path class="cls-1" d="M1629.9,33.8c.72.09,1.21-.6,1.41-1.2a10.89,10.89,0,0,0,.2-2.42.58.58,0,0,0-.49-.66.56.56,0,0,0-.79.26,16.14,16.14,0,0,0-1.2,2.34A1.22,1.22,0,0,0,1629.9,33.8Z"/><path class="cls-1" d="M1640.29,28a11.62,11.62,0,0,0,1.35,2.32,1.17,1.17,0,0,0,1.86,0c.44-.64,0-1.46-.46-1.95a14.26,14.26,0,0,0-1.7-1.28h0l0,0a.57.57,0,0,0-.85.1A.63.63,0,0,0,1640.29,28Z"/><path class="cls-1" d="M1636,33a1.2,1.2,0,0,0,1.55,1,1.47,1.47,0,0,0,.68-1.71,9.79,9.79,0,0,0-.9-2.2h0a.08.08,0,0,1,0-.05.57.57,0,0,0-.79-.32.61.61,0,0,0-.53.63A12.74,12.74,0,0,0,1636,33Z"/><path class="cls-1" d="M1622.1,24.31a9.09,9.09,0,0,0,2.2-.81h0a.7.7,0,0,0,.41-1,.54.54,0,0,0-.62-.38,17.36,17.36,0,0,0-2.39-.08c-.73.06-1.5.62-1.29,1.45S1621.45,24.38,1622.1,24.31Z"/><path class="cls-1" d="M1623.59,29.87a1.65,1.65,0,0,0,2-.43,13.8,13.8,0,0,0,1.29-1.65.18.18,0,0,0,.05-.07h0s0-.07,0-.1l0-.09a.76.76,0,0,0-.3-.78l-.11,0-.08,0-.14,0h-.16l-.07,0a.78.78,0,0,0-.14,0l-1.26.65a5,5,0,0,0-1.1.64A1.18,1.18,0,0,0,1623.59,29.87Z"/><path class="cls-1" d="M1640.26,42c4.4-1.32,8.64-3.22,11.2-7.22a.7.7,0,0,0-1.18-.76c-2.35,3.68-6.29,5.41-10.33,6.61C1639.09,40.9,1639.4,42.27,1640.26,42Z"/><path class="cls-1" d="M1651.44,32.45a.7.7,0,0,0,1.24-.65l0-.08a.7.7,0,0,0-1.24.65Z"/><path class="cls-1" d="M1297.69,7.1a.7.7,0,0,0-1-.25l-50.42,30a.63.63,0,0,0-.32.63.13.13,0,0,0,0,.06.43.43,0,0,1,0,0,.66.66,0,0,0,.06.22c4.19,8.29,11.7,14.59,21.08,15.7s18.57-3.42,25.64-9.44a27.59,27.59,0,0,0,8.53-13.82C1303.7,21.79,1303,14.2,1297.69,7.1Zm-3.26,2.75c4,6.34,4.35,12.6,1.75,19.58-1.14,3-2.39,6.46-4.45,9a25.38,25.38,0,0,1-8.71,6.49c-2.72,1.3-6.52,3-9.54,3.22a36.79,36.79,0,0,1-8.83-.55c-6.54-1.13-11-6.17-14.52-11.43l41.1-24.43Zm6,4.93a19.32,19.32,0,0,1,.84,8.2c-1,9.67-5,17.33-13,22.77-6.76,4.54-14.2,7.62-22.48,6.09-8-1.47-14.34-7.09-18.11-14.17l1.32-.78c3.58,5.4,8.22,10.64,14.86,12a32.27,32.27,0,0,0,10.77.6,37.26,37.26,0,0,0,9.18-3.32c7.3-3.51,11-9,13.79-16.37s2.29-14-1.93-20.71a3.55,3.55,0,0,1,1.46-.78c.25,0,.68,1.23,1.16,2A21.85,21.85,0,0,1,1300.41,14.78Z"/><path class="cls-1" d="M1278.85,33.82a1.47,1.47,0,0,0,.05-1.85,10.25,10.25,0,0,0-1.65-1.77.59.59,0,0,0-.83-.08.57.57,0,0,0-.33.77,15.94,15.94,0,0,0,.93,2.44A1.22,1.22,0,0,0,1278.85,33.82Z"/><path class="cls-1" d="M1281.54,22.25a12.58,12.58,0,0,0,2.63.56c.72,0,1.47-.58,1.27-1.37s-1.07-1-1.76-1a16.42,16.42,0,0,0-2.09.41h-.07a.56.56,0,0,0-.48.69A.63.63,0,0,0,1281.54,22.25Z"/><path class="cls-1" d="M1282.33,28.78a1.2,1.2,0,0,0,1.81-.46,1.47,1.47,0,0,0-.82-1.65,10.06,10.06,0,0,0-2.23-.81H1281a.56.56,0,0,0-.77.36.63.63,0,0,0,.11.82A13,13,0,0,0,1282.33,28.78Z"/><path class="cls-1" d="M1266.58,33.25a9.86,9.86,0,0,0,.88-2.18v0a.7.7,0,0,0-.46-1,.54.54,0,0,0-.69.21,18.17,18.17,0,0,0-1.67,1.73,1.24,1.24,0,0,0,.22,1.91A1.4,1.4,0,0,0,1266.58,33.25Z"/><path class="cls-1" d="M1271.71,35.87c.76-.18,1-1.06,1-1.75a13.36,13.36,0,0,0-.35-2.07s0,0,0-.08h0a.37.37,0,0,0,0-.11l0-.09a.77.77,0,0,0-.78-.3l-.11.06-.08,0a.31.31,0,0,0-.11.09.4.4,0,0,0-.1.12l0,.07a.39.39,0,0,0-.06.13l-.36,1.37a4.81,4.81,0,0,0-.26,1.24A1.18,1.18,0,0,0,1271.71,35.87Z"/><path class="cls-1" d="M1291.89,31.63c2-4.15,3.4-8.57,2.15-13.15a.7.7,0,0,0-1.35.37c1.15,4.21-.22,8.29-2,12.1C1290.28,31.76,1291.5,32.45,1291.89,31.63Z"/><path class="cls-1" d="M1292.29,16.93a.7.7,0,0,0,.34-1.36l-.08,0a.7.7,0,0,0-.35,1.35Z"/><path class="cls-1" d="M1726.76,18.08a.72.72,0,0,0,.12,1l46.23,36.08a.61.61,0,0,0,.7.07l.06,0,0,0a.79.79,0,0,0,.18-.14c6.21-6.92,9.35-16.2,7-25.35s-9.93-16.05-18.12-20.45a27.46,27.46,0,0,0-16-2.92C1738.27,7.15,1731.44,10.55,1726.76,18.08Zm3.75,2c4.46-6,10.16-8.63,17.61-8.74,3.25-.05,6.88-.12,10,.87a25.34,25.34,0,0,1,9.21,5.75c2.2,2.06,5.15,5,6.47,7.72a36.76,36.76,0,0,1,2.7,8.42c1.32,6.51-1.75,12.51-5.38,17.69l-37.7-29.42Zm2.43-7.36A19.1,19.1,0,0,1,1740.27,9c9.37-2.6,17.94-1.67,26,3.88,6.69,4.64,12.26,10.46,13.85,18.72,1.54,8-1.4,15.95-6.63,22l-1.2-.94c3.73-5.31,6.92-11.53,5.76-18.2a31.93,31.93,0,0,0-3.36-10.25,36.77,36.77,0,0,0-6.43-7.35c-5.92-5.52-12.37-7-20.26-6.9s-13.9,3-18.59,9.33c-.53-.35-1.14-.76-1.26-1.08s.9-1.08,1.43-1.8A21.22,21.22,0,0,1,1732.94,12.76Z"/><path class="cls-1" d="M1758.51,25.93a1.48,1.48,0,0,0-1.75.62,10.94,10.94,0,0,0-1,2.18.59.59,0,0,0,.23.8.58.58,0,0,0,.84,0,18,18,0,0,0,1.94-1.76A1.22,1.22,0,0,0,1758.51,25.93Z"/><path class="cls-1" d="M1746.74,27.63a11.2,11.2,0,0,0-.43-2.65,1.17,1.17,0,0,0-1.73-.69,1.62,1.62,0,0,0-.27,2,18.8,18.8,0,0,0,1.14,1.8h0l0,0a.56.56,0,0,0,.82.21A.62.62,0,0,0,1746.74,27.63Z"/><path class="cls-1" d="M1752.55,24.52a1.22,1.22,0,0,0-1.09-1.53c-.73,0-1.11.73-1.24,1.37a9.42,9.42,0,0,0,.06,2.37h0v.05a.58.58,0,0,0,.62.59.63.63,0,0,0,.73-.4A14.06,14.06,0,0,0,1752.55,24.52Z"/><path class="cls-1" d="M1762.43,37.56a9.72,9.72,0,0,0-2.35,0h0a.71.71,0,0,0-.74.79.55.55,0,0,0,.44.57,20.36,20.36,0,0,0,2.22.92,1.26,1.26,0,0,0,1.71-.9C1763.77,38.17,1763.06,37.72,1762.43,37.56Z"/><path class="cls-1" d="M1763,31.83a1.65,1.65,0,0,0-2-.29,13.27,13.27,0,0,0-1.8,1.09l-.07,0h0a.2.2,0,0,0-.08.08l-.07.07a.76.76,0,0,0,0,.83l.09.08.07.06.12.07.15.05h.07a.38.38,0,0,0,.15,0l1.41-.16a5.27,5.27,0,0,0,1.25-.21A1.18,1.18,0,0,0,1763,31.83Z"/><path class="cls-1" d="M1751.72,14.58c-4.58-.33-9.22-.06-13,2.77a.7.7,0,0,0,.84,1.13c3.5-2.61,7.8-2.82,12-2.52C1752.43,16,1752.63,14.64,1751.72,14.58Z"/><path class="cls-1" d="M1737.88,19.55a.7.7,0,0,0-1.39.17v.09a.7.7,0,0,0,1.39-.17Z"/><path class="cls-1" d="M2064,25.11a.72.72,0,0,0-.51-.85L2006.66,10a.64.64,0,0,0-.67.22l0,0,0,0a1,1,0,0,0-.11.2c-2.88,8.84-2,18.6,3.88,26s15.57,10.67,24.84,11.38a27.49,27.49,0,0,0,15.79-3.79C2057.94,39.76,2062.8,33.9,2064,25.11Zm-4.26-.35c-1.64,7.3-5.8,12-12.57,15.12-3,1.36-6.24,2.89-9.51,3.26A25.31,25.31,0,0,1,2027,41.6c-2.85-1-6.73-2.48-9-4.45a36.84,36.84,0,0,1-5.87-6.6c-3.84-5.42-3.46-12.15-2.23-18.35l46.36,11.66Zm.76,7.72a19.14,19.14,0,0,1-5.18,6.4c-7.52,6.16-15.74,8.78-25.3,6.94-8-1.54-15.44-4.6-20.24-11.52-4.66-6.71-5.17-15.14-2.85-22.82l1.48.37c-1.26,6.36-1.67,13.34,2.1,19a31.87,31.87,0,0,0,7.21,8,36.63,36.63,0,0,0,8.85,4.12c7.65,2.66,14.16,1.43,21.32-1.88s11.51-8.34,13.23-16a3.56,3.56,0,0,1,1.59.48c.18.17-.38,1.35-.58,2.22A21.18,21.18,0,0,1,2060.54,32.48Z"/><path class="cls-1" d="M2031.83,30.77c.73.06,1.18-.65,1.35-1.27a10.88,10.88,0,0,0,.07-2.42.59.59,0,0,0-.53-.64.58.58,0,0,0-.78.31,16.41,16.41,0,0,0-1.06,2.39A1.22,1.22,0,0,0,2031.83,30.77Z"/><path class="cls-1" d="M2041.9,24.46a11.78,11.78,0,0,0,1.47,2.25,1.19,1.19,0,0,0,1.87-.07,1.63,1.63,0,0,0-.57-1.92,14,14,0,0,0-1.77-1.19h0l0,0a.56.56,0,0,0-.84.15A.62.62,0,0,0,2041.9,24.46Z"/><path class="cls-1" d="M2037.85,29.65a1.21,1.21,0,0,0,1.61,1,1.5,1.5,0,0,0,.59-1.75,10.32,10.32,0,0,0-1-2.15h0l0,0a.56.56,0,0,0-.8-.29.63.63,0,0,0-.5.66A13.47,13.47,0,0,0,2037.85,29.65Z"/><path class="cls-1" d="M2023.54,21.72a9.51,9.51,0,0,0,2.15-.93h0a.7.7,0,0,0,.35-1,.54.54,0,0,0-.63-.35,19.19,19.19,0,0,0-2.4,0c-.73.11-1.46.7-1.2,1.51A1.41,1.41,0,0,0,2023.54,21.72Z"/><path class="cls-1" d="M2025.33,27.19c.66.41,1.45,0,1.93-.53a15.67,15.67,0,0,0,1.21-1.72l0-.07h0s0-.08,0-.11a.32.32,0,0,0,0-.09.75.75,0,0,0-.34-.76l-.11,0-.09,0-.14,0-.16,0-.06,0a.58.58,0,0,0-.14.05l-1.22.72a5.06,5.06,0,0,0-1.07.7A1.18,1.18,0,0,0,2025.33,27.19Z"/><path class="cls-1" d="M2042.63,38.41c4.32-1.55,8.45-3.68,10.79-7.81a.7.7,0,0,0-1.22-.69c-2.15,3.8-6,5.74-10,7.16C2041.39,37.37,2041.77,38.72,2042.63,38.41Z"/><path class="cls-1" d="M2053.28,28.27a.7.7,0,0,0,1.2-.72l-.05-.08a.7.7,0,0,0-1.2.72Z"/><path class="cls-1" d="M2153.07.74a.72.72,0,0,0-1,0l-42.53,40.36a.62.62,0,0,0-.18.68s0,0,0,.06,0,0,0,0a1.36,1.36,0,0,0,.11.2c5.92,7.16,14.63,11.64,24,10.65s17.35-7.44,22.92-14.88a27.48,27.48,0,0,0,5.25-15.37C2162.17,13.74,2159.83,6.49,2153.07.74Zm-2.57,3.41c5.28,5.3,7,11.33,6,18.71-.43,3.22-.9,6.82-2.34,9.78a25.58,25.58,0,0,1-7.06,8.26c-2.37,1.86-5.7,4.34-8.6,5.24a36.35,36.35,0,0,1-8.72,1.42c-6.63.34-12.11-3.58-16.69-7.94L2147.8,6.71Zm6.92,3.49a19.16,19.16,0,0,1,2.63,7.81c1.18,9.65-1,18-7.69,25.08-5.58,5.93-12.16,10.57-20.57,10.92-8.16.34-15.56-3.75-20.8-9.82l1.11-1.05c4.69,4.47,10.37,8.56,17.14,8.39a32,32,0,0,0,10.64-1.79,36.61,36.61,0,0,0,8.22-5.27c6.34-5,8.78-11.19,9.83-19s-.88-14.19-6.47-19.77c.42-.48.92-1,1.26-1.09s.94,1,1.56,1.68A21.52,21.52,0,0,1,2157.42,7.64Z"/><path class="cls-1" d="M2140.6,31a1.46,1.46,0,0,0-.36-1.82,10.22,10.22,0,0,0-2-1.36.59.59,0,0,0-.82.11.57.57,0,0,0-.16.82,16.18,16.18,0,0,0,1.45,2.18A1.22,1.22,0,0,0,2140.6,31Z"/><path class="cls-1" d="M2140.66,19.09a11.5,11.5,0,0,0,2.69,0,1.18,1.18,0,0,0,.94-1.61,1.64,1.64,0,0,0-1.93-.56,17,17,0,0,0-2,.86h0l-.05,0a.56.56,0,0,0-.32.78A.63.63,0,0,0,2140.66,19.09Z"/><path class="cls-1" d="M2142.88,25.29a1.21,1.21,0,0,0,1.67-.85c.09-.73-.56-1.21-1.16-1.43a9.84,9.84,0,0,0-2.36-.29H2141a.56.56,0,0,0-.67.53.61.61,0,0,0,.29.77A13.53,13.53,0,0,0,2142.88,25.29Z"/><path class="cls-1" d="M2128.52,33.12a10,10,0,0,0,.37-2.31v0a.69.69,0,0,0-.66-.84.54.54,0,0,0-.63.35,17.19,17.19,0,0,0-1.24,2.05,1.26,1.26,0,0,0,.63,1.83C2127.71,34.36,2128.26,33.72,2128.52,33.12Z"/><path class="cls-1" d="M2134.09,34.55a1.65,1.65,0,0,0,.59-1.93,15.59,15.59,0,0,0-.81-1.94l0-.07v0a.28.28,0,0,0-.07-.09l-.05-.07a.74.74,0,0,0-.82-.12l-.1.07-.07.06a.44.44,0,0,0-.08.11.61.61,0,0,0-.07.14.19.19,0,0,0,0,.07.7.7,0,0,0,0,.14c0,.48,0,1-.05,1.42a5.4,5.4,0,0,0,0,1.27A1.19,1.19,0,0,0,2134.09,34.55Z"/><path class="cls-1" d="M2152.84,26c1-4.48,1.42-9.11-.82-13.3a.7.7,0,0,0-1.23.66c2.05,3.85,1.62,8.14.7,12.25C2151.29,26.43,2152.64,26.83,2152.84,26Z"/><path class="cls-1" d="M2150,11.52a.7.7,0,0,0,0-1.4h-.09a.7.7,0,0,0,0,1.4Z"/><path class="cls-1" d="M2278.75,27.43a.71.71,0,0,0-.31-.94L2226.09.08a.63.63,0,0,0-.71.07l0,0s0,0,0,0a.63.63,0,0,0-.15.17c-4.75,8-6,17.7-1.92,26.22S2236.1,40.42,2245,43.15a27.51,27.51,0,0,0,16.24-.24C2269.59,40.39,2275.62,35.73,2278.75,27.43Zm-4.07-1.27c-3.21,6.76-8.29,10.44-15.58,12-3.18.67-6.72,1.45-10,1.09A25.4,25.4,0,0,1,2239,35.4c-2.56-1.6-6-3.9-7.84-6.33a36.24,36.24,0,0,1-4.28-7.73c-2.56-6.13-.72-12.61,1.84-18.39l42.69,21.53Zm-.95,7.69a19.28,19.28,0,0,1-6.46,5.12c-8.69,4.36-17.28,5.12-26.21,1.22-7.47-3.25-14.06-7.87-17.22-15.67-3.08-7.57-1.73-15.91,2.22-22.89l1.36.69c-2.62,5.92-4.55,12.64-2.11,19a31.88,31.88,0,0,0,5.28,9.4,37.23,37.23,0,0,0,7.73,6c6.89,4.27,13.5,4.49,21.22,2.83s13.06-5.61,16.42-12.76a3.73,3.73,0,0,1,1.45.82c.13.21-.67,1.23-1,2A21.8,21.8,0,0,1,2273.73,33.85Z"/><path class="cls-1" d="M2246.09,25.9c.7.21,1.29-.39,1.59-.95a10.4,10.4,0,0,0,.6-2.35.59.59,0,0,0-.38-.74.58.58,0,0,0-.82.13,16.55,16.55,0,0,0-1.56,2.1A1.22,1.22,0,0,0,2246.09,25.9Z"/><path class="cls-1" d="M2257.3,22a12,12,0,0,0,.94,2.52,1.18,1.18,0,0,0,1.83.34,1.63,1.63,0,0,0-.13-2,15.33,15.33,0,0,0-1.47-1.55h0l0,0a.56.56,0,0,0-.85,0A.61.61,0,0,0,2257.3,22Z"/><path class="cls-1" d="M2252.21,26.12c0,.73.56,1.47,1.36,1.29a1.48,1.48,0,0,0,.95-1.58,10,10,0,0,0-.52-2.32h0a.43.43,0,0,1,0-.05.57.57,0,0,0-.72-.45.64.64,0,0,0-.64.53A12.83,12.83,0,0,0,2252.21,26.12Z"/><path class="cls-1" d="M2240,15.25a9.7,9.7,0,0,0,2.31-.43h0a.7.7,0,0,0,.57-.91.53.53,0,0,0-.54-.48A17.45,17.45,0,0,0,2240,13c-.73-.06-1.58.35-1.51,1.21S2239.33,15.21,2240,15.25Z"/><path class="cls-1" d="M2240.52,21a1.64,1.64,0,0,0,2-.1,13.89,13.89,0,0,0,1.56-1.41l.06-.06h0a.53.53,0,0,0,.06-.1l.05-.07a.75.75,0,0,0-.16-.82.53.53,0,0,0-.1-.06l-.08-.05-.13,0a.44.44,0,0,0-.16,0h-.07a.39.39,0,0,0-.15,0l-1.35.43a5.71,5.71,0,0,0-1.19.45A1.18,1.18,0,0,0,2240.52,21Z"/><path class="cls-1" d="M2255,35.72c4.55-.57,9.05-1.74,12.24-5.26a.7.7,0,0,0-1-.94c-2.93,3.24-7.11,4.28-11.29,4.8C2254,34.43,2254.05,35.83,2255,35.72Z"/><path class="cls-1" d="M2267.56,28.15a.7.7,0,0,0,1.33-.43l0-.09a.7.7,0,0,0-1.33.44Z"/><path class="cls-1" d="M1907.08,5.75a.72.72,0,0,0-1,0l-42.55,40.35a.61.61,0,0,0-.17.68s0,0,0,.06l0,0a.81.81,0,0,0,.11.2c5.91,7.16,14.63,11.65,24,10.66s17.35-7.44,22.92-14.88a27.46,27.46,0,0,0,5.26-15.36C1916.18,18.75,1913.84,11.5,1907.08,5.75Zm-2.57,3.4c5.28,5.3,7,11.33,6,18.72-.43,3.22-.9,6.81-2.34,9.77a25.47,25.47,0,0,1-7.06,8.26c-2.37,1.86-5.71,4.34-8.6,5.24a36.85,36.85,0,0,1-8.73,1.42c-6.63.34-12.11-3.59-16.69-8l34.7-32.9Zm6.92,3.49a19.41,19.41,0,0,1,2.63,7.81c1.17,9.65-1,18-7.7,25.09-5.59,5.92-12.16,10.56-20.58,10.91-8.16.33-15.56-3.75-20.79-9.83l1.11-1c4.69,4.47,10.36,8.56,17.14,8.4a31.9,31.9,0,0,0,10.63-1.79,36.61,36.61,0,0,0,8.22-5.27c6.35-5,8.8-11.19,9.84-19s-.87-14.18-6.46-19.76a3.72,3.72,0,0,1,1.26-1.1c.24,0,.94,1.06,1.56,1.69A21.12,21.12,0,0,1,1911.43,12.64Z"/><path class="cls-1" d="M1894.6,36a1.47,1.47,0,0,0-.35-1.82,10.6,10.6,0,0,0-2-1.36.59.59,0,0,0-.82.11.58.58,0,0,0-.16.82,16.84,16.84,0,0,0,1.45,2.18A1.22,1.22,0,0,0,1894.6,36Z"/><path class="cls-1" d="M1894.67,24.09a11.52,11.52,0,0,0,2.69,0,1.18,1.18,0,0,0,.94-1.61,1.65,1.65,0,0,0-1.93-.56,17.92,17.92,0,0,0-2,.86h0l0,0a.57.57,0,0,0-.33.78A.63.63,0,0,0,1894.67,24.09Z"/><path class="cls-1" d="M1896.88,30.29a1.21,1.21,0,0,0,1.67-.85c.09-.72-.55-1.21-1.16-1.43a9.84,9.84,0,0,0-2.36-.29H1895a.56.56,0,0,0-.67.53.62.62,0,0,0,.29.77A13.93,13.93,0,0,0,1896.88,30.29Z"/><path class="cls-1" d="M1882.52,38.12a10,10,0,0,0,.37-2.32s0,0,0,0a.71.71,0,0,0-.67-.85.55.55,0,0,0-.63.35,17.31,17.31,0,0,0-1.24,2.06,1.25,1.25,0,0,0,.63,1.82C1881.71,39.35,1882.26,38.72,1882.52,38.12Z"/><path class="cls-1" d="M1888.09,39.55a1.65,1.65,0,0,0,.59-1.93,15.59,15.59,0,0,0-.81-1.94l0-.07v0s0-.06-.07-.09a.56.56,0,0,0,0-.08.77.77,0,0,0-.82-.12.7.7,0,0,0-.1.08l-.07.06a.44.44,0,0,0-.08.11.61.61,0,0,0-.07.14.64.64,0,0,0,0,.07.7.7,0,0,0,0,.14c0,.47,0,.94,0,1.42a5.4,5.4,0,0,0,0,1.27A1.19,1.19,0,0,0,1888.09,39.55Z"/><path class="cls-1" d="M1906.84,31c1-4.48,1.42-9.11-.81-13.3a.7.7,0,0,0-1.24.66c2.06,3.86,1.63,8.14.7,12.25C1905.3,31.44,1906.64,31.84,1906.84,31Z"/><path class="cls-1" d="M1904,16.52a.7.7,0,0,0,0-1.4h-.09a.7.7,0,0,0,0,1.4Z"/><path class="cls-1" d="M2332.76,20.08a.72.72,0,0,0,.12,1l46.23,36.08a.61.61,0,0,0,.7.07l.06,0,0,0a.79.79,0,0,0,.18-.14c6.21-6.92,9.35-16.2,7-25.35s-9.93-16.05-18.12-20.45a27.46,27.46,0,0,0-16-2.92C2344.27,9.15,2337.44,12.55,2332.76,20.08Zm3.75,2c4.46-6,10.16-8.63,17.61-8.74,3.25-.05,6.88-.12,10,.87a25.34,25.34,0,0,1,9.21,5.75c2.2,2.06,5.15,5,6.47,7.72a36.76,36.76,0,0,1,2.7,8.42c1.32,6.51-1.75,12.51-5.38,17.69l-37.7-29.42Zm2.43-7.36a19.1,19.1,0,0,1,7.33-3.76c9.37-2.6,17.94-1.67,25.95,3.88,6.69,4.64,12.26,10.46,13.85,18.72,1.54,8-1.4,15.95-6.63,22l-1.2-.94c3.73-5.31,6.92-11.53,5.76-18.2a31.93,31.93,0,0,0-3.36-10.25,36.77,36.77,0,0,0-6.43-7.35c-5.92-5.52-12.37-7-20.26-6.9s-13.9,3-18.59,9.33c-.53-.35-1.14-.76-1.26-1.08s.9-1.08,1.43-1.8A21.22,21.22,0,0,1,2338.94,14.76Z"/><path class="cls-1" d="M2364.51,27.93a1.48,1.48,0,0,0-1.75.62,10.94,10.94,0,0,0-1.05,2.18.59.59,0,0,0,.23.8.58.58,0,0,0,.84,0,18,18,0,0,0,1.94-1.76A1.22,1.22,0,0,0,2364.51,27.93Z"/><path class="cls-1" d="M2352.74,29.63a11.2,11.2,0,0,0-.43-2.65,1.17,1.17,0,0,0-1.73-.69,1.62,1.62,0,0,0-.27,2,18.8,18.8,0,0,0,1.14,1.8h0l0,0a.56.56,0,0,0,.82.21A.62.62,0,0,0,2352.74,29.63Z"/><path class="cls-1" d="M2358.55,26.52a1.22,1.22,0,0,0-1.09-1.53c-.73,0-1.11.73-1.24,1.37a9.42,9.42,0,0,0,.06,2.37h0v.05a.58.58,0,0,0,.62.59.63.63,0,0,0,.73-.4A14.06,14.06,0,0,0,2358.55,26.52Z"/><path class="cls-1" d="M2368.43,39.56a9.72,9.72,0,0,0-2.35,0h0a.71.71,0,0,0-.74.79.55.55,0,0,0,.44.57,20.36,20.36,0,0,0,2.22.92,1.26,1.26,0,0,0,1.71-.9C2369.77,40.17,2369.06,39.72,2368.43,39.56Z"/><path class="cls-1" d="M2369,33.83a1.65,1.65,0,0,0-2-.29,13.27,13.27,0,0,0-1.8,1.09l-.07,0h0a.2.2,0,0,0-.08.08l-.07.07a.76.76,0,0,0,0,.83l.09.08.07.06.12.07.15.05h.07a.38.38,0,0,0,.15,0l1.41-.16a5.27,5.27,0,0,0,1.25-.21A1.18,1.18,0,0,0,2369,33.83Z"/><path class="cls-1" d="M2357.72,16.58c-4.58-.33-9.22-.06-13,2.77a.7.7,0,0,0,.84,1.13c3.5-2.61,7.8-2.82,12-2.52C2358.43,18,2358.63,16.64,2357.72,16.58Z"/><path class="cls-1" d="M2343.88,21.55a.7.7,0,0,0-1.39.17v.09a.7.7,0,0,0,1.39-.17Z"/><path class="cls-1" d="M179.38,106.36a.72.72,0,0,0-.7-.7H120a.62.62,0,0,0-.6.38l0,0a.07.07,0,0,0,0,0,.51.51,0,0,0-.06.22c-.64,9.27,2.6,18.52,10.1,24.27s17.7,6.54,26.86,5a27.47,27.47,0,0,0,14.39-7.53C177,122.05,180.32,115.18,179.38,106.36Zm-4.22.7c.19,7.48-2.7,13-8.5,17.73-2.53,2-5.35,4.32-8.43,5.48a25.47,25.47,0,0,1-10.8,1.13c-3-.28-7.13-.77-9.85-2.11a36.43,36.43,0,0,1-7.31-5c-5-4.32-6.32-10.93-6.64-17.25h51.53Zm2.62,7.29a19.25,19.25,0,0,1-3.46,7.48c-5.79,7.81-13.12,12.36-22.85,12.9-8.13.46-16.1-.7-22.44-6.24-6.15-5.37-8.7-13.42-8.32-21.43h1.52c.33,6.47,1.63,13.34,6.66,17.89a32,32,0,0,0,9,6,36.93,36.93,0,0,0,9.59,1.84c8.07.71,14.08-2.07,20.22-7s9.13-10.9,8.91-18.79a3.64,3.64,0,0,1,1.67.07c.21.13,0,1.41,0,2.3A21.44,21.44,0,0,1,177.78,114.35Z"/><path class="cls-1" d="M149.52,119.7c.72-.12,1-.92,1-1.56a10.8,10.8,0,0,0-.52-2.37.6.6,0,0,0-.67-.49.58.58,0,0,0-.68.49,16.4,16.4,0,0,0-.45,2.58C148.18,119.08,148.72,119.85,149.52,119.7Z"/><path class="cls-1" d="M157.75,111.13a11.69,11.69,0,0,0,2,1.82,1.18,1.18,0,0,0,1.79-.52c.23-.75-.41-1.4-1-1.73a16,16,0,0,0-2-.72h-.06a.57.57,0,0,0-.78.34A.64.64,0,0,0,157.75,111.13Z"/><path class="cls-1" d="M155.09,117.15a1.2,1.2,0,0,0,1.79.53,1.47,1.47,0,0,0,.14-1.84,10.14,10.14,0,0,0-1.51-1.83h0s0,0,0,0a.56.56,0,0,0-.84-.08.64.64,0,0,0-.33.77A13.46,13.46,0,0,0,155.09,117.15Z"/><path class="cls-1" d="M139.27,113a9.56,9.56,0,0,0,1.87-1.43,0,0,0,0,0,0,0,.7.7,0,0,0,.1-1.07.55.55,0,0,0-.7-.18,18.37,18.37,0,0,0-2.31.64,1.25,1.25,0,0,0-.8,1.76A1.42,1.42,0,0,0,139.27,113Z"/><path class="cls-1" d="M142.34,117.82c.74.23,1.4-.4,1.75-1a14.42,14.42,0,0,0,.75-2l0-.07v0s0-.08,0-.11,0-.07,0-.1a.75.75,0,0,0-.52-.65h-.21l-.14,0-.14.06-.06,0a.57.57,0,0,0-.13.08l-1,1a5.92,5.92,0,0,0-.87.94A1.19,1.19,0,0,0,142.34,117.82Z"/><path class="cls-1" d="M161.85,124.48c3.82-2.56,7.31-5.63,8.57-10.21a.7.7,0,0,0-1.35-.37c-1.16,4.21-4.42,7-7.92,9.37C160.4,123.77,161.1,125,161.85,124.48Z"/><path class="cls-1" d="M169.71,112.05c.64.63,1.63-.36,1-1l-.07-.07a.7.7,0,0,0-1,1Z"/><path class="cls-1" d="M287.69,93.1a.7.7,0,0,0-.95-.25l-50.42,30a.63.63,0,0,0-.32.63.13.13,0,0,0,0,.06.43.43,0,0,1,0,0,.66.66,0,0,0,.06.22c4.19,8.29,11.7,14.59,21.08,15.7s18.57-3.42,25.64-9.44a27.59,27.59,0,0,0,8.53-13.82C293.7,107.79,293,100.2,287.69,93.1Zm-3.26,2.75c4,6.34,4.35,12.6,1.75,19.58-1.14,3-2.39,6.46-4.45,9a25.38,25.38,0,0,1-8.71,6.49c-2.72,1.3-6.52,3-9.54,3.22a36.79,36.79,0,0,1-8.83-.55c-6.54-1.13-11-6.17-14.52-11.43l41.1-24.43Zm6,4.93a19.32,19.32,0,0,1,.84,8.2c-1,9.67-5,17.33-13.05,22.77-6.76,4.54-14.2,7.62-22.48,6.09-8-1.47-14.34-7.09-18.11-14.17l1.32-.78c3.58,5.4,8.22,10.64,14.86,12a32.27,32.27,0,0,0,10.77.6,37.26,37.26,0,0,0,9.18-3.32c7.3-3.51,11-9,13.79-16.37s2.29-14-1.93-20.71a3.55,3.55,0,0,1,1.46-.78c.25,0,.68,1.23,1.16,2A21.85,21.85,0,0,1,290.41,100.78Z"/><path class="cls-1" d="M268.85,119.82a1.47,1.47,0,0,0,0-1.85,10.25,10.25,0,0,0-1.65-1.77.59.59,0,0,0-.83-.08.57.57,0,0,0-.33.77,15.94,15.94,0,0,0,.93,2.44A1.22,1.22,0,0,0,268.85,119.82Z"/><path class="cls-1" d="M271.54,108.25a12.58,12.58,0,0,0,2.63.56c.72,0,1.47-.58,1.27-1.37s-1.07-1-1.76-1a16.42,16.42,0,0,0-2.09.41h-.07a.56.56,0,0,0-.48.69A.63.63,0,0,0,271.54,108.25Z"/><path class="cls-1" d="M272.33,114.78a1.2,1.2,0,0,0,1.81-.46,1.47,1.47,0,0,0-.82-1.65,10.06,10.06,0,0,0-2.23-.81H271a.56.56,0,0,0-.77.36.63.63,0,0,0,.11.82A13,13,0,0,0,272.33,114.78Z"/><path class="cls-1" d="M256.58,119.25a9.86,9.86,0,0,0,.88-2.18v0a.7.7,0,0,0-.46-1,.54.54,0,0,0-.69.21,18.17,18.17,0,0,0-1.67,1.73,1.24,1.24,0,0,0,.22,1.91A1.4,1.4,0,0,0,256.58,119.25Z"/><path class="cls-1" d="M261.71,121.87c.76-.18,1-1.06,1-1.75a13.36,13.36,0,0,0-.35-2.07s0,0,0-.08h0a.37.37,0,0,0-.05-.11l0-.09a.77.77,0,0,0-.78-.3l-.11.06-.08,0a.31.31,0,0,0-.11.09.4.4,0,0,0-.1.12l0,.07a.39.39,0,0,0-.06.13l-.36,1.37a4.81,4.81,0,0,0-.26,1.24A1.18,1.18,0,0,0,261.71,121.87Z"/><path class="cls-1" d="M281.89,117.63c2-4.15,3.4-8.57,2.15-13.15a.7.7,0,0,0-1.35.37c1.15,4.21-.22,8.29-2,12.1C280.28,117.76,281.5,118.45,281.89,117.63Z"/><path class="cls-1" d="M282.29,102.93a.7.7,0,0,0,.34-1.36l-.08,0a.7.7,0,0,0-.35,1.35Z"/><path class="cls-1" d="M416.36,120.88a.72.72,0,0,0-.46-.88l-56-17.34a.62.62,0,0,0-.68.19.08.08,0,0,0,0,0l0,0a.67.67,0,0,0-.12.2c-3.35,8.66-3,18.46,2.47,26.17s15,11.48,24.19,12.7a27.52,27.52,0,0,0,16-2.94C409.48,135.18,414.65,129.58,416.36,120.88Zm-4.23-.58c-2,7.2-6.44,11.67-13.36,14.42-3,1.2-6.39,2.55-9.68,2.74a25.27,25.27,0,0,1-10.65-2.11c-2.79-1.15-6.58-2.84-8.78-4.93a36.3,36.3,0,0,1-5.51-6.91c-3.55-5.62-2.81-12.32-1.25-18.45l45.68,14.14Zm.35,7.74a19.49,19.49,0,0,1-5.52,6.12c-7.84,5.75-16.19,7.92-25.64,5.57-7.91-2-15.18-5.43-19.6-12.59-4.28-7-4.34-15.4-1.61-22.94l1.45.45c-1.6,6.28-2.38,13.23,1.08,19.06a32,32,0,0,0,6.77,8.39,37.06,37.06,0,0,0,8.61,4.59c7.5,3.06,14.07,2.18,21.4-.73s11.94-7.71,14.07-15.32a3.76,3.76,0,0,1,1.57.56c.16.19-.46,1.34-.71,2.19A21,21,0,0,1,412.48,128Z"/><path class="cls-1" d="M383.9,124.8c.72.09,1.21-.6,1.41-1.2a10.89,10.89,0,0,0,.2-2.42.58.58,0,0,0-.49-.66.56.56,0,0,0-.79.26,16.14,16.14,0,0,0-1.2,2.34A1.22,1.22,0,0,0,383.9,124.8Z"/><path class="cls-1" d="M394.29,119a11.62,11.62,0,0,0,1.35,2.32,1.17,1.17,0,0,0,1.86,0c.44-.64,0-1.46-.46-2a14.26,14.26,0,0,0-1.7-1.28h0l0,0a.57.57,0,0,0-.85.1A.63.63,0,0,0,394.29,119Z"/><path class="cls-1" d="M390,124a1.2,1.2,0,0,0,1.55,1,1.47,1.47,0,0,0,.68-1.71,9.79,9.79,0,0,0-.9-2.2h0a.08.08,0,0,1,0-.05.57.57,0,0,0-.79-.32.61.61,0,0,0-.53.63A12.74,12.74,0,0,0,390,124Z"/><path class="cls-1" d="M376.1,115.31a9.09,9.09,0,0,0,2.2-.81h0a.7.7,0,0,0,.41-1,.54.54,0,0,0-.62-.38,17.36,17.36,0,0,0-2.39-.08c-.73.06-1.5.62-1.29,1.45S375.45,115.38,376.1,115.31Z"/><path class="cls-1" d="M377.59,120.87a1.65,1.65,0,0,0,2-.43,13.8,13.8,0,0,0,1.29-1.65.18.18,0,0,0,0-.07h0s0-.07,0-.1l0-.09a.76.76,0,0,0-.3-.78l-.11,0-.08,0-.14,0a.85.85,0,0,0-.16,0l-.07,0a.78.78,0,0,0-.14,0l-1.26.65a5,5,0,0,0-1.1.64A1.18,1.18,0,0,0,377.59,120.87Z"/><path class="cls-1" d="M394.26,133c4.4-1.32,8.64-3.22,11.2-7.22a.7.7,0,0,0-1.18-.76c-2.35,3.68-6.29,5.41-10.33,6.61C393.09,131.9,393.4,133.27,394.26,133Z"/><path class="cls-1" d="M405.44,123.45a.7.7,0,0,0,1.24-.65l0-.08a.7.7,0,0,0-1.24.65Z"/><path class="cls-1" d="M51.69,98.1a.7.7,0,0,0-.95-.25l-50.42,30a.63.63,0,0,0-.32.63.13.13,0,0,0,0,.06.43.43,0,0,1,0,.05.66.66,0,0,0,.06.22c4.19,8.29,11.7,14.59,21.08,15.7S39.73,141.05,46.8,135a27.59,27.59,0,0,0,8.53-13.82C57.7,112.79,57,105.2,51.69,98.1Zm-3.26,2.75c4,6.34,4.35,12.6,1.75,19.58-1.14,3-2.39,6.46-4.45,9A25.38,25.38,0,0,1,37,135.94c-2.72,1.3-6.52,3-9.54,3.22a36.79,36.79,0,0,1-8.83-.55c-6.54-1.13-11-6.17-14.52-11.43l41.1-24.43Zm6,4.93a19.32,19.32,0,0,1,.84,8.2c-1,9.67-5,17.33-13,22.77-6.76,4.54-14.2,7.62-22.48,6.09-8-1.47-14.34-7.09-18.11-14.17l1.32-.78c3.58,5.4,8.22,10.64,14.86,12a32.27,32.27,0,0,0,10.77.6,37.26,37.26,0,0,0,9.18-3.32c7.3-3.51,11-9,13.79-16.37s2.29-14-1.93-20.71a3.55,3.55,0,0,1,1.46-.78c.25,0,.68,1.23,1.16,2A21.85,21.85,0,0,1,54.41,105.78Z"/><path class="cls-1" d="M32.85,124.82a1.47,1.47,0,0,0,0-1.85,10.25,10.25,0,0,0-1.65-1.77.59.59,0,0,0-.83-.08.57.57,0,0,0-.33.77,15.94,15.94,0,0,0,.93,2.44A1.22,1.22,0,0,0,32.85,124.82Z"/><path class="cls-1" d="M35.54,113.25a12.58,12.58,0,0,0,2.63.56c.72,0,1.47-.58,1.27-1.37s-1.07-1-1.76-1a16.42,16.42,0,0,0-2.09.41h-.07a.56.56,0,0,0-.48.69A.63.63,0,0,0,35.54,113.25Z"/><path class="cls-1" d="M36.33,119.78a1.2,1.2,0,0,0,1.81-.46,1.47,1.47,0,0,0-.82-1.65,10.06,10.06,0,0,0-2.23-.81H35a.56.56,0,0,0-.77.36.63.63,0,0,0,.11.82A13,13,0,0,0,36.33,119.78Z"/><path class="cls-1" d="M20.58,124.25a9.86,9.86,0,0,0,.88-2.18v0a.7.7,0,0,0-.46-1,.54.54,0,0,0-.69.21A18.17,18.17,0,0,0,18.64,123a1.24,1.24,0,0,0,.22,1.91A1.4,1.4,0,0,0,20.58,124.25Z"/><path class="cls-1" d="M25.71,126.87c.76-.18,1-1.06,1-1.75a13.36,13.36,0,0,0-.35-2.07s0,0,0-.08h0a.37.37,0,0,0,0-.11l0-.09a.77.77,0,0,0-.78-.3l-.11.06-.08,0a.31.31,0,0,0-.11.09.4.4,0,0,0-.1.12l0,.07A.39.39,0,0,0,25,123l-.36,1.37a4.81,4.81,0,0,0-.26,1.24A1.18,1.18,0,0,0,25.71,126.87Z"/><path class="cls-1" d="M45.89,122.63c2-4.15,3.4-8.57,2.15-13.15a.7.7,0,0,0-1.35.37c1.15,4.21-.22,8.29-2,12.1C44.28,122.76,45.5,123.45,45.89,122.63Z"/><path class="cls-1" d="M46.29,107.93a.7.7,0,0,0,.34-1.36l-.08,0a.7.7,0,0,0-.35,1.35Z"/><path class="cls-1" d="M470.76,109.08a.72.72,0,0,0,.12,1l46.23,36.08a.61.61,0,0,0,.7.07l.06,0,0,0a.79.79,0,0,0,.18-.14c6.21-6.92,9.35-16.2,7-25.35s-9.93-16-18.12-20.45a27.46,27.46,0,0,0-16-2.92C482.27,98.15,475.44,101.55,470.76,109.08Zm3.75,2c4.46-6,10.16-8.63,17.61-8.74,3.25,0,6.88-.12,10,.87a25.34,25.34,0,0,1,9.21,5.75c2.2,2.06,5.15,5,6.47,7.72a36.76,36.76,0,0,1,2.7,8.42c1.32,6.51-1.75,12.51-5.38,17.69l-37.7-29.42Zm2.43-7.36a19.1,19.1,0,0,1,7.33-3.76c9.37-2.6,17.94-1.67,26,3.88,6.69,4.64,12.26,10.46,13.85,18.72,1.54,8-1.4,16-6.63,22l-1.2-.94c3.73-5.31,6.92-11.53,5.76-18.2a31.93,31.93,0,0,0-3.36-10.25,36.77,36.77,0,0,0-6.43-7.35c-5.92-5.52-12.37-7-20.26-6.9s-13.9,3-18.59,9.33c-.53-.35-1.14-.76-1.26-1.08s.9-1.08,1.43-1.8A21.22,21.22,0,0,1,476.94,103.76Z"/><path class="cls-1" d="M502.51,116.93a1.48,1.48,0,0,0-1.75.62,10.94,10.94,0,0,0-1.05,2.18.59.59,0,0,0,.23.8.58.58,0,0,0,.84,0,18,18,0,0,0,1.94-1.76A1.22,1.22,0,0,0,502.51,116.93Z"/><path class="cls-1" d="M490.74,118.63a11.2,11.2,0,0,0-.43-2.65,1.17,1.17,0,0,0-1.73-.69,1.62,1.62,0,0,0-.27,2,18.8,18.8,0,0,0,1.14,1.8h0l0,0a.56.56,0,0,0,.82.21A.62.62,0,0,0,490.74,118.63Z"/><path class="cls-1" d="M496.55,115.52a1.22,1.22,0,0,0-1.09-1.53c-.73,0-1.11.73-1.24,1.37a9.42,9.42,0,0,0,.06,2.37h0v.05a.58.58,0,0,0,.62.59.63.63,0,0,0,.73-.4A14.06,14.06,0,0,0,496.55,115.52Z"/><path class="cls-1" d="M506.43,128.56a9.72,9.72,0,0,0-2.35,0h0a.71.71,0,0,0-.74.79.55.55,0,0,0,.44.57,20.36,20.36,0,0,0,2.22.92,1.26,1.26,0,0,0,1.71-.9C507.77,129.17,507.06,128.72,506.43,128.56Z"/><path class="cls-1" d="M507,122.83a1.65,1.65,0,0,0-2-.29,13.27,13.27,0,0,0-1.8,1.09l-.07,0h0a.2.2,0,0,0-.08.08.23.23,0,0,0-.07.07.76.76,0,0,0,0,.83l.09.08.07.06.12.07.15,0h.07a.38.38,0,0,0,.15,0l1.41-.16a5.27,5.27,0,0,0,1.25-.21A1.18,1.18,0,0,0,507,122.83Z"/><path class="cls-1" d="M495.72,105.58c-4.58-.33-9.22-.06-13,2.77a.7.7,0,0,0,.84,1.13c3.5-2.61,7.8-2.82,12-2.52C496.43,107,496.63,105.64,495.72,105.58Z"/><path class="cls-1" d="M481.88,110.55a.7.7,0,0,0-1.39.17v.09a.7.7,0,0,0,1.39-.17Z"/><path class="cls-1" d="M758,116.11a.72.72,0,0,0-.51-.85L700.66,101a.64.64,0,0,0-.67.22s0,0,0,0l0,0a1,1,0,0,0-.11.2c-2.88,8.84-2,18.6,3.88,26s15.57,10.67,24.84,11.38a27.49,27.49,0,0,0,15.79-3.79C751.94,130.76,756.8,124.9,758,116.11Zm-4.26-.35c-1.64,7.3-5.8,12-12.57,15.12-3,1.36-6.24,2.89-9.51,3.26A25.31,25.31,0,0,1,721,132.6c-2.85-1-6.73-2.48-9-4.45a36.84,36.84,0,0,1-5.87-6.6c-3.84-5.42-3.46-12.15-2.23-18.35l46.36,11.66Zm.76,7.72a19.14,19.14,0,0,1-5.18,6.4c-7.52,6.16-15.74,8.78-25.3,6.94-8-1.54-15.44-4.6-20.24-11.52-4.66-6.71-5.17-15.14-2.85-22.82l1.48.37c-1.26,6.36-1.67,13.34,2.1,19a31.87,31.87,0,0,0,7.21,8,36.63,36.63,0,0,0,8.85,4.12c7.65,2.66,14.16,1.43,21.32-1.88s11.51-8.34,13.23-16.05a3.56,3.56,0,0,1,1.59.48c.18.17-.38,1.35-.58,2.22A21.18,21.18,0,0,1,754.54,123.48Z"/><path class="cls-1" d="M725.83,121.77c.73.06,1.18-.65,1.35-1.27a10.88,10.88,0,0,0,.07-2.42.59.59,0,0,0-.53-.64.58.58,0,0,0-.78.31,16.41,16.41,0,0,0-1.06,2.39A1.22,1.22,0,0,0,725.83,121.77Z"/><path class="cls-1" d="M735.9,115.46a11.78,11.78,0,0,0,1.47,2.25,1.19,1.19,0,0,0,1.87-.07,1.63,1.63,0,0,0-.57-1.92,14,14,0,0,0-1.77-1.19h0l0,0a.56.56,0,0,0-.84.15A.62.62,0,0,0,735.9,115.46Z"/><path class="cls-1" d="M731.85,120.65a1.21,1.21,0,0,0,1.61,1,1.5,1.5,0,0,0,.59-1.75,10.32,10.32,0,0,0-1-2.15h0l0,0a.56.56,0,0,0-.8-.29.63.63,0,0,0-.5.66A13.47,13.47,0,0,0,731.85,120.65Z"/><path class="cls-1" d="M717.54,112.72a9.51,9.51,0,0,0,2.15-.93h0a.7.7,0,0,0,.35-1,.54.54,0,0,0-.63-.35,19.19,19.19,0,0,0-2.4,0c-.73.11-1.46.7-1.2,1.51A1.41,1.41,0,0,0,717.54,112.72Z"/><path class="cls-1" d="M719.33,118.19c.66.41,1.45,0,1.93-.53a15.67,15.67,0,0,0,1.21-1.72l0-.07h0s0-.08,0-.11a.32.32,0,0,0,0-.09.75.75,0,0,0-.34-.76l-.11,0-.09,0-.14,0-.16,0-.06,0a.58.58,0,0,0-.14,0l-1.22.72a5.06,5.06,0,0,0-1.07.7A1.18,1.18,0,0,0,719.33,118.19Z"/><path class="cls-1" d="M736.63,129.41c4.32-1.55,8.45-3.68,10.79-7.81a.7.7,0,0,0-1.22-.69c-2.15,3.8-6,5.74-10,7.16C735.39,128.37,735.77,129.72,736.63,129.41Z"/><path class="cls-1" d="M747.28,119.27a.7.7,0,0,0,1.2-.72l-.05-.08a.7.7,0,0,0-1.2.72Z"/><path class="cls-1" d="M857.07,91.74a.72.72,0,0,0-1,0l-42.53,40.36a.62.62,0,0,0-.18.68s0,0,0,.06,0,0,0,.05a1.36,1.36,0,0,0,.11.2c5.92,7.16,14.63,11.64,24,10.65s17.35-7.44,22.92-14.88a27.48,27.48,0,0,0,5.25-15.37C866.17,104.74,863.83,97.49,857.07,91.74Zm-2.57,3.41c5.28,5.3,7,11.33,6,18.71-.43,3.22-.9,6.82-2.34,9.78a25.58,25.58,0,0,1-7.06,8.26c-2.37,1.86-5.7,4.34-8.6,5.24a36.35,36.35,0,0,1-8.72,1.42c-6.63.34-12.11-3.58-16.69-7.94L851.8,97.71Zm6.92,3.49a19.16,19.16,0,0,1,2.63,7.81c1.18,9.65-1,18-7.69,25.08-5.58,5.93-12.16,10.57-20.57,10.92-8.16.34-15.56-3.75-20.8-9.82l1.11-1c4.69,4.47,10.37,8.56,17.14,8.39a32,32,0,0,0,10.64-1.79,36.61,36.61,0,0,0,8.22-5.27c6.34-5,8.78-11.19,9.83-19s-.88-14.19-6.47-19.77c.42-.48.92-1,1.26-1.09s.94,1,1.56,1.68A21.52,21.52,0,0,1,861.42,98.64Z"/><path class="cls-1" d="M844.6,122a1.46,1.46,0,0,0-.36-1.82,10.22,10.22,0,0,0-2-1.36.59.59,0,0,0-.82.11.57.57,0,0,0-.16.82,16.18,16.18,0,0,0,1.45,2.18A1.22,1.22,0,0,0,844.6,122Z"/><path class="cls-1" d="M844.66,110.09a11.5,11.5,0,0,0,2.69,0,1.18,1.18,0,0,0,.94-1.61,1.64,1.64,0,0,0-1.93-.56,17,17,0,0,0-2,.86h0l0,0a.56.56,0,0,0-.32.78A.63.63,0,0,0,844.66,110.09Z"/><path class="cls-1" d="M846.88,116.29a1.21,1.21,0,0,0,1.67-.85c.09-.73-.56-1.21-1.16-1.43a9.84,9.84,0,0,0-2.36-.29H845a.56.56,0,0,0-.67.53.61.61,0,0,0,.29.77A13.53,13.53,0,0,0,846.88,116.29Z"/><path class="cls-1" d="M832.52,124.12a10,10,0,0,0,.37-2.31s0,0,0,0a.69.69,0,0,0-.66-.84.54.54,0,0,0-.63.35,17.19,17.19,0,0,0-1.24,2,1.26,1.26,0,0,0,.63,1.83C831.71,125.36,832.26,124.72,832.52,124.12Z"/><path class="cls-1" d="M838.09,125.55a1.65,1.65,0,0,0,.59-1.93,15.59,15.59,0,0,0-.81-1.94l0-.07v0a.28.28,0,0,0-.07-.09l0-.07a.74.74,0,0,0-.82-.12l-.1.07-.07.06a.44.44,0,0,0-.08.11.61.61,0,0,0-.07.14.19.19,0,0,0,0,.07.7.7,0,0,0,0,.14c0,.48,0,.95,0,1.42a5.4,5.4,0,0,0,0,1.27A1.19,1.19,0,0,0,838.09,125.55Z"/><path class="cls-1" d="M856.84,117c1-4.48,1.42-9.11-.82-13.3a.7.7,0,0,0-1.23.66c2.05,3.85,1.62,8.14.7,12.25C855.29,117.43,856.64,117.83,856.84,117Z"/><path class="cls-1" d="M854,102.52a.7.7,0,0,0,0-1.4h-.09a.7.7,0,0,0,0,1.4Z"/><path class="cls-1" d="M982.75,118.43a.71.71,0,0,0-.31-.94L930.09,91.08a.63.63,0,0,0-.71.07l0,0s0,0,0,0a.63.63,0,0,0-.15.17c-4.75,8-6,17.7-1.92,26.22S940.1,131.42,949,134.15a27.51,27.51,0,0,0,16.24-.24C973.59,131.39,979.62,126.73,982.75,118.43Zm-4.07-1.27c-3.21,6.76-8.29,10.44-15.58,12-3.18.67-6.72,1.45-10,1.09A25.4,25.4,0,0,1,943,126.4c-2.56-1.6-6-3.9-7.84-6.33a36.24,36.24,0,0,1-4.28-7.73c-2.56-6.13-.72-12.61,1.84-18.39l42.69,21.53Zm-.95,7.69a19.28,19.28,0,0,1-6.46,5.12c-8.69,4.36-17.28,5.12-26.21,1.22-7.47-3.25-14.06-7.87-17.22-15.67-3.08-7.57-1.73-15.91,2.22-22.89l1.36.69c-2.62,5.92-4.55,12.64-2.11,19a31.88,31.88,0,0,0,5.28,9.4,37.23,37.23,0,0,0,7.73,6c6.89,4.27,13.5,4.49,21.22,2.83s13.06-5.61,16.42-12.76a3.73,3.73,0,0,1,1.45.82c.13.21-.67,1.23-1,2A21.8,21.8,0,0,1,977.73,124.85Z"/><path class="cls-1" d="M950.09,116.9c.7.21,1.29-.39,1.59-1a10.4,10.4,0,0,0,.6-2.35.59.59,0,0,0-.38-.74.58.58,0,0,0-.82.13,16.55,16.55,0,0,0-1.56,2.1A1.22,1.22,0,0,0,950.09,116.9Z"/><path class="cls-1" d="M961.3,113a12,12,0,0,0,.94,2.52,1.18,1.18,0,0,0,1.83.34,1.63,1.63,0,0,0-.13-2,15.33,15.33,0,0,0-1.47-1.55h0l0,0a.56.56,0,0,0-.85,0A.61.61,0,0,0,961.3,113Z"/><path class="cls-1" d="M956.21,117.12c0,.73.56,1.47,1.36,1.29a1.48,1.48,0,0,0,.95-1.58,10,10,0,0,0-.52-2.32h0a.43.43,0,0,1,0,0,.57.57,0,0,0-.72-.45.64.64,0,0,0-.64.53A12.83,12.83,0,0,0,956.21,117.12Z"/><path class="cls-1" d="M944,106.25a9.7,9.7,0,0,0,2.31-.43h0a.7.7,0,0,0,.57-.91.53.53,0,0,0-.54-.48A17.45,17.45,0,0,0,944,104c-.73-.06-1.58.35-1.51,1.21S943.33,106.21,944,106.25Z"/><path class="cls-1" d="M944.52,112a1.64,1.64,0,0,0,2-.1,13.89,13.89,0,0,0,1.56-1.41l.06-.06h0a.53.53,0,0,0,.06-.1l0-.07a.75.75,0,0,0-.16-.82.53.53,0,0,0-.1-.06l-.08,0-.13,0a.44.44,0,0,0-.16,0h-.07a.39.39,0,0,0-.15,0l-1.35.43a5.71,5.71,0,0,0-1.19.45A1.18,1.18,0,0,0,944.52,112Z"/><path class="cls-1" d="M959,126.72c4.55-.57,9-1.74,12.24-5.26a.7.7,0,0,0-1-.94c-2.93,3.24-7.11,4.28-11.29,4.8C958,125.43,958.05,126.83,959,126.72Z"/><path class="cls-1" d="M971.56,119.15a.7.7,0,0,0,1.33-.43l0-.09a.7.7,0,0,0-1.33.44Z"/><path class="cls-1" d="M621.08,96.75a.72.72,0,0,0-1,0l-42.55,40.35a.61.61,0,0,0-.17.68s0,0,0,.06l0,.05a.81.81,0,0,0,.11.2c5.91,7.16,14.63,11.65,24,10.66s17.35-7.44,22.92-14.88a27.46,27.46,0,0,0,5.26-15.36C630.18,109.75,627.84,102.5,621.08,96.75Zm-2.57,3.4c5.28,5.3,7,11.33,6,18.72-.43,3.22-.9,6.81-2.34,9.77a25.47,25.47,0,0,1-7.06,8.26c-2.37,1.86-5.71,4.34-8.6,5.24a36.85,36.85,0,0,1-8.73,1.42c-6.63.34-12.11-3.59-16.69-7.95l34.7-32.9Zm6.92,3.49a19.41,19.41,0,0,1,2.63,7.81c1.17,9.65-1,18-7.7,25.09-5.59,5.92-12.16,10.56-20.58,10.91-8.16.33-15.56-3.75-20.79-9.83l1.11-1.05c4.69,4.47,10.36,8.56,17.14,8.4a31.9,31.9,0,0,0,10.63-1.79,36.61,36.61,0,0,0,8.22-5.27c6.35-5,8.8-11.19,9.84-19s-.87-14.18-6.46-19.76a3.72,3.72,0,0,1,1.26-1.1c.24-.05.94,1.06,1.56,1.69A21.12,21.12,0,0,1,625.43,103.64Z"/><path class="cls-1" d="M608.6,127a1.47,1.47,0,0,0-.35-1.82,10.6,10.6,0,0,0-2-1.36.59.59,0,0,0-.82.11.58.58,0,0,0-.16.82,16.84,16.84,0,0,0,1.45,2.18A1.22,1.22,0,0,0,608.6,127Z"/><path class="cls-1" d="M608.67,115.09a11.52,11.52,0,0,0,2.69,0,1.18,1.18,0,0,0,.94-1.61,1.65,1.65,0,0,0-1.93-.56,17.92,17.92,0,0,0-2,.86h0l0,0a.57.57,0,0,0-.33.78A.63.63,0,0,0,608.67,115.09Z"/><path class="cls-1" d="M610.88,121.29a1.21,1.21,0,0,0,1.67-.85c.09-.72-.55-1.21-1.16-1.43a9.84,9.84,0,0,0-2.36-.29H609a.56.56,0,0,0-.67.53.62.62,0,0,0,.29.77A13.93,13.93,0,0,0,610.88,121.29Z"/><path class="cls-1" d="M596.52,129.12a10,10,0,0,0,.37-2.32s0,0,0,0a.71.71,0,0,0-.67-.85.55.55,0,0,0-.63.35,17.31,17.31,0,0,0-1.24,2.06,1.25,1.25,0,0,0,.63,1.82C595.71,130.35,596.26,129.72,596.52,129.12Z"/><path class="cls-1" d="M602.09,130.55a1.65,1.65,0,0,0,.59-1.93,15.59,15.59,0,0,0-.81-1.94l0-.07v0s0-.06-.07-.09a.56.56,0,0,0,0-.08.77.77,0,0,0-.82-.12.7.7,0,0,0-.1.08l-.07.06a.44.44,0,0,0-.08.11.61.61,0,0,0-.07.14.64.64,0,0,0,0,.07.7.7,0,0,0,0,.14c0,.47,0,.94,0,1.42a5.4,5.4,0,0,0,0,1.27A1.19,1.19,0,0,0,602.09,130.55Z"/><path class="cls-1" d="M620.84,122c1-4.48,1.42-9.11-.81-13.3a.7.7,0,0,0-1.24.66c2.06,3.86,1.63,8.14.7,12.25C619.3,122.44,620.64,122.84,620.84,122Z"/><path class="cls-1" d="M618,107.52a.7.7,0,0,0,0-1.4h-.09a.7.7,0,0,0,0,1.4Z"/><path class="cls-1" d="M1056.76,111.08a.72.72,0,0,0,.12,1l46.23,36.08a.61.61,0,0,0,.7.07l.06,0,0,0a.79.79,0,0,0,.18-.14c6.21-6.92,9.35-16.2,7-25.35s-9.93-16-18.12-20.45a27.46,27.46,0,0,0-16-2.92C1068.27,100.15,1061.44,103.55,1056.76,111.08Zm3.75,2c4.46-6,10.16-8.63,17.61-8.74,3.25,0,6.88-.12,10,.87a25.34,25.34,0,0,1,9.21,5.75c2.2,2.06,5.15,5,6.47,7.72a36.76,36.76,0,0,1,2.7,8.42c1.32,6.51-1.75,12.51-5.38,17.69l-37.7-29.42Zm2.43-7.36a19.1,19.1,0,0,1,7.33-3.76c9.37-2.6,17.94-1.67,26,3.88,6.69,4.64,12.26,10.46,13.85,18.72,1.54,8-1.4,16-6.63,22l-1.2-.94c3.73-5.31,6.92-11.53,5.76-18.2a31.93,31.93,0,0,0-3.36-10.25,36.77,36.77,0,0,0-6.43-7.35c-5.92-5.52-12.37-7-20.26-6.9s-13.9,3-18.59,9.33c-.53-.35-1.14-.76-1.26-1.08s.9-1.08,1.43-1.8A21.22,21.22,0,0,1,1062.94,105.76Z"/><path class="cls-1" d="M1088.51,118.93a1.48,1.48,0,0,0-1.75.62,10.94,10.94,0,0,0-1,2.18.59.59,0,0,0,.23.8.58.58,0,0,0,.84,0,18,18,0,0,0,1.94-1.76A1.22,1.22,0,0,0,1088.51,118.93Z"/><path class="cls-1" d="M1076.74,120.63a11.2,11.2,0,0,0-.43-2.65,1.17,1.17,0,0,0-1.73-.69,1.62,1.62,0,0,0-.27,2,18.8,18.8,0,0,0,1.14,1.8h0l0,0a.56.56,0,0,0,.82.21A.62.62,0,0,0,1076.74,120.63Z"/><path class="cls-1" d="M1082.55,117.52a1.22,1.22,0,0,0-1.09-1.53c-.73,0-1.11.73-1.24,1.37a9.42,9.42,0,0,0,.06,2.37h0v.05a.58.58,0,0,0,.62.59.63.63,0,0,0,.73-.4A14.06,14.06,0,0,0,1082.55,117.52Z"/><path class="cls-1" d="M1092.43,130.56a9.72,9.72,0,0,0-2.35,0h0a.71.71,0,0,0-.74.79.55.55,0,0,0,.44.57,20.36,20.36,0,0,0,2.22.92,1.26,1.26,0,0,0,1.71-.9C1093.77,131.17,1093.06,130.72,1092.43,130.56Z"/><path class="cls-1" d="M1093,124.83a1.65,1.65,0,0,0-2-.29,13.27,13.27,0,0,0-1.8,1.09l-.07,0h0a.2.2,0,0,0-.08.08.23.23,0,0,0-.07.07.76.76,0,0,0,0,.83l.09.08.07.06.12.07.15,0h.07a.38.38,0,0,0,.15,0l1.41-.16a5.27,5.27,0,0,0,1.25-.21A1.18,1.18,0,0,0,1093,124.83Z"/><path class="cls-1" d="M1081.72,107.58c-4.58-.33-9.22-.06-13,2.77a.7.7,0,0,0,.84,1.13c3.5-2.61,7.8-2.82,12-2.52C1082.43,109,1082.63,107.64,1081.72,107.58Z"/><path class="cls-1" d="M1067.88,112.55a.7.7,0,0,0-1.39.17v.09a.7.7,0,0,0,1.39-.17Z"/><path class="cls-1" d="M1369.38,102.36a.72.72,0,0,0-.7-.7H1310a.62.62,0,0,0-.6.38l0,0a.07.07,0,0,0,0,0,.51.51,0,0,0-.06.22c-.64,9.27,2.6,18.52,10.1,24.27s17.7,6.54,26.86,5a27.47,27.47,0,0,0,14.39-7.53C1367,118.05,1370.32,111.18,1369.38,102.36Zm-4.22.7c.19,7.48-2.7,13-8.5,17.73-2.53,2-5.35,4.32-8.43,5.48a25.47,25.47,0,0,1-10.8,1.13c-3-.28-7.13-.77-9.85-2.11a36.43,36.43,0,0,1-7.31-5c-5-4.32-6.32-10.93-6.64-17.25h51.53Zm2.62,7.29a19.25,19.25,0,0,1-3.46,7.48c-5.79,7.81-13.12,12.36-22.85,12.9-8.13.46-16.1-.7-22.44-6.24-6.15-5.37-8.7-13.42-8.32-21.43h1.52c.33,6.47,1.63,13.34,6.66,17.89a32,32,0,0,0,8.95,6,36.93,36.93,0,0,0,9.59,1.84c8.07.71,14.08-2.07,20.22-7s9.13-10.9,8.91-18.79a3.64,3.64,0,0,1,1.67.07c.21.13,0,1.41,0,2.3A21.44,21.44,0,0,1,1367.78,110.35Z"/><path class="cls-1" d="M1339.52,115.7c.72-.12,1-.92,1-1.56a10.8,10.8,0,0,0-.52-2.37.6.6,0,0,0-.67-.49.58.58,0,0,0-.68.49,16.4,16.4,0,0,0-.45,2.58C1338.18,115.08,1338.72,115.85,1339.52,115.7Z"/><path class="cls-1" d="M1347.75,107.13a11.69,11.69,0,0,0,2,1.82,1.18,1.18,0,0,0,1.79-.52c.23-.75-.41-1.4-1-1.73a16,16,0,0,0-2-.72h-.06a.57.57,0,0,0-.78.34A.64.64,0,0,0,1347.75,107.13Z"/><path class="cls-1" d="M1345.09,113.15a1.2,1.2,0,0,0,1.79.53,1.47,1.47,0,0,0,.14-1.84,10.14,10.14,0,0,0-1.51-1.83h0s0,0,0,0a.56.56,0,0,0-.84-.08.64.64,0,0,0-.33.77A13.46,13.46,0,0,0,1345.09,113.15Z"/><path class="cls-1" d="M1329.27,109a9.56,9.56,0,0,0,1.87-1.43,0,0,0,0,0,0,0,.7.7,0,0,0,.1-1.07.55.55,0,0,0-.7-.18,18.37,18.37,0,0,0-2.31.64,1.25,1.25,0,0,0-.8,1.76A1.42,1.42,0,0,0,1329.27,109Z"/><path class="cls-1" d="M1332.34,113.82c.74.23,1.4-.4,1.75-1a14.42,14.42,0,0,0,.75-2l0-.07v0s0-.08,0-.11,0-.07,0-.1a.75.75,0,0,0-.52-.65h-.21l-.14,0-.14.06-.06,0a.57.57,0,0,0-.13.08l-1,1a5.92,5.92,0,0,0-.87.94A1.19,1.19,0,0,0,1332.34,113.82Z"/><path class="cls-1" d="M1351.85,120.48c3.82-2.56,7.31-5.63,8.57-10.21a.7.7,0,0,0-1.35-.37c-1.16,4.21-4.42,7-7.92,9.37C1350.4,119.77,1351.1,121,1351.85,120.48Z"/><path class="cls-1" d="M1359.71,108.05c.64.63,1.63-.36,1-1l-.07-.07a.7.7,0,0,0-1,1Z"/><path class="cls-1" d="M1477.69,89.1a.7.7,0,0,0-1-.25l-50.42,30a.63.63,0,0,0-.32.63.13.13,0,0,0,0,.06.43.43,0,0,1,0,0,.66.66,0,0,0,.06.22c4.19,8.29,11.7,14.59,21.08,15.7s18.57-3.42,25.64-9.44a27.59,27.59,0,0,0,8.53-13.82C1483.7,103.79,1483,96.2,1477.69,89.1Zm-3.26,2.75c4,6.34,4.35,12.6,1.75,19.58-1.14,3-2.39,6.46-4.45,9a25.38,25.38,0,0,1-8.71,6.49c-2.72,1.3-6.52,3-9.54,3.22a36.79,36.79,0,0,1-8.83-.55c-6.54-1.13-11-6.17-14.52-11.43l41.1-24.43Zm6,4.93a19.32,19.32,0,0,1,.84,8.2c-1,9.67-5,17.33-13,22.77-6.76,4.54-14.2,7.62-22.48,6.09-8-1.47-14.34-7.09-18.11-14.17l1.32-.78c3.58,5.4,8.22,10.64,14.86,12a32.27,32.27,0,0,0,10.77.6,37.26,37.26,0,0,0,9.18-3.32c7.3-3.51,11-9,13.79-16.37s2.29-14-1.93-20.71a3.55,3.55,0,0,1,1.46-.78c.25,0,.68,1.23,1.16,2A21.85,21.85,0,0,1,1480.41,96.78Z"/><path class="cls-1" d="M1458.85,115.82a1.47,1.47,0,0,0,.05-1.85,10.25,10.25,0,0,0-1.65-1.77.59.59,0,0,0-.83-.08.57.57,0,0,0-.33.77,15.94,15.94,0,0,0,.93,2.44A1.22,1.22,0,0,0,1458.85,115.82Z"/><path class="cls-1" d="M1461.54,104.25a12.58,12.58,0,0,0,2.63.56c.72,0,1.47-.58,1.27-1.37s-1.07-1-1.76-1a16.42,16.42,0,0,0-2.09.41h-.07a.56.56,0,0,0-.48.69A.63.63,0,0,0,1461.54,104.25Z"/><path class="cls-1" d="M1462.33,110.78a1.2,1.2,0,0,0,1.81-.46,1.47,1.47,0,0,0-.82-1.65,10.06,10.06,0,0,0-2.23-.81H1461a.56.56,0,0,0-.77.36.63.63,0,0,0,.11.82A13,13,0,0,0,1462.33,110.78Z"/><path class="cls-1" d="M1446.58,115.25a9.86,9.86,0,0,0,.88-2.18v0a.7.7,0,0,0-.46-1,.54.54,0,0,0-.69.21,18.17,18.17,0,0,0-1.67,1.73,1.24,1.24,0,0,0,.22,1.91A1.4,1.4,0,0,0,1446.58,115.25Z"/><path class="cls-1" d="M1451.71,117.87c.76-.18,1-1.06,1-1.75a13.36,13.36,0,0,0-.35-2.07s0,0,0-.08h0a.37.37,0,0,0,0-.11l0-.09a.77.77,0,0,0-.78-.3l-.11.06-.08,0a.31.31,0,0,0-.11.09.4.4,0,0,0-.1.12l0,.07a.39.39,0,0,0-.06.13l-.36,1.37a4.81,4.81,0,0,0-.26,1.24A1.18,1.18,0,0,0,1451.71,117.87Z"/><path class="cls-1" d="M1471.89,113.63c2-4.15,3.4-8.57,2.15-13.15a.7.7,0,0,0-1.35.37c1.15,4.21-.22,8.29-2,12.1C1470.28,113.76,1471.5,114.45,1471.89,113.63Z"/><path class="cls-1" d="M1472.29,98.93a.7.7,0,0,0,.34-1.36l-.08,0a.7.7,0,0,0-.35,1.35Z"/><path class="cls-1" d="M1606.36,116.88a.72.72,0,0,0-.46-.88l-56-17.34a.62.62,0,0,0-.68.19.08.08,0,0,0,0,0l0,0a.67.67,0,0,0-.12.2c-3.35,8.66-3,18.46,2.47,26.17s15,11.48,24.19,12.7a27.52,27.52,0,0,0,16-2.94C1599.48,131.18,1604.65,125.58,1606.36,116.88Zm-4.23-.58c-2,7.2-6.44,11.67-13.36,14.42-3,1.2-6.39,2.55-9.68,2.74a25.27,25.27,0,0,1-10.65-2.11c-2.79-1.15-6.58-2.84-8.78-4.93a36.3,36.3,0,0,1-5.51-6.91c-3.55-5.62-2.81-12.32-1.25-18.45l45.68,14.14Zm.35,7.74a19.49,19.49,0,0,1-5.52,6.12c-7.84,5.75-16.19,7.92-25.64,5.57-7.91-2-15.18-5.43-19.6-12.59-4.28-7-4.34-15.4-1.61-22.94l1.45.45c-1.6,6.28-2.38,13.23,1.08,19.06a32,32,0,0,0,6.77,8.39,37.06,37.06,0,0,0,8.61,4.59c7.5,3.06,14.07,2.18,21.4-.73s11.94-7.71,14.07-15.32a3.76,3.76,0,0,1,1.57.56c.16.19-.46,1.34-.71,2.19A21,21,0,0,1,1602.48,124Z"/><path class="cls-1" d="M1573.9,120.8c.72.09,1.21-.6,1.41-1.2a10.89,10.89,0,0,0,.2-2.42.58.58,0,0,0-.49-.66.56.56,0,0,0-.79.26,16.14,16.14,0,0,0-1.2,2.34A1.22,1.22,0,0,0,1573.9,120.8Z"/><path class="cls-1" d="M1584.29,115a11.62,11.62,0,0,0,1.35,2.32,1.17,1.17,0,0,0,1.86,0c.44-.64,0-1.46-.46-2a14.26,14.26,0,0,0-1.7-1.28h0l0,0a.57.57,0,0,0-.85.1A.63.63,0,0,0,1584.29,115Z"/><path class="cls-1" d="M1580,120a1.2,1.2,0,0,0,1.55,1,1.47,1.47,0,0,0,.68-1.71,9.79,9.79,0,0,0-.9-2.2h0a.08.08,0,0,1,0-.05.57.57,0,0,0-.79-.32.61.61,0,0,0-.53.63A12.74,12.74,0,0,0,1580,120Z"/><path class="cls-1" d="M1566.1,111.31a9.09,9.09,0,0,0,2.2-.81h0a.7.7,0,0,0,.41-1,.54.54,0,0,0-.62-.38,17.36,17.36,0,0,0-2.39-.08c-.73.06-1.5.62-1.29,1.45S1565.45,111.38,1566.1,111.31Z"/><path class="cls-1" d="M1567.59,116.87a1.65,1.65,0,0,0,2-.43,13.8,13.8,0,0,0,1.29-1.65.18.18,0,0,0,.05-.07h0s0-.07,0-.1l0-.09a.76.76,0,0,0-.3-.78l-.11,0-.08,0-.14,0a.85.85,0,0,0-.16,0l-.07,0a.78.78,0,0,0-.14,0l-1.26.65a5,5,0,0,0-1.1.64A1.18,1.18,0,0,0,1567.59,116.87Z"/><path class="cls-1" d="M1584.26,129c4.4-1.32,8.64-3.22,11.2-7.22a.7.7,0,0,0-1.18-.76c-2.35,3.68-6.29,5.41-10.33,6.61C1583.09,127.9,1583.4,129.27,1584.26,129Z"/><path class="cls-1" d="M1595.44,119.45a.7.7,0,0,0,1.24-.65l0-.08a.7.7,0,0,0-1.24.65Z"/><path class="cls-1" d="M1221.69,94.1a.7.7,0,0,0-1-.25l-50.42,30a.63.63,0,0,0-.32.63.13.13,0,0,0,0,.06.43.43,0,0,1,0,0,.66.66,0,0,0,.06.22c4.19,8.29,11.7,14.59,21.08,15.7s18.57-3.42,25.64-9.44a27.59,27.59,0,0,0,8.53-13.82C1227.7,108.79,1227,101.2,1221.69,94.1Zm-3.26,2.75c4,6.34,4.35,12.6,1.75,19.58-1.14,3-2.39,6.46-4.45,9a25.38,25.38,0,0,1-8.71,6.49c-2.72,1.3-6.52,3-9.54,3.22a36.79,36.79,0,0,1-8.83-.55c-6.54-1.13-11-6.17-14.52-11.43l41.1-24.43Zm6,4.93a19.32,19.32,0,0,1,.84,8.2c-1,9.67-5,17.33-13,22.77-6.76,4.54-14.2,7.62-22.48,6.09-8-1.47-14.34-7.09-18.11-14.17l1.32-.78c3.58,5.4,8.22,10.64,14.86,12a32.27,32.27,0,0,0,10.77.6,37.26,37.26,0,0,0,9.18-3.32c7.3-3.51,11-9,13.79-16.37s2.29-14-1.93-20.71a3.55,3.55,0,0,1,1.46-.78c.25,0,.68,1.23,1.16,2A21.85,21.85,0,0,1,1224.41,101.78Z"/><path class="cls-1" d="M1202.85,120.82a1.47,1.47,0,0,0,.05-1.85,10.25,10.25,0,0,0-1.65-1.77.59.59,0,0,0-.83-.08.57.57,0,0,0-.33.77,15.94,15.94,0,0,0,.93,2.44A1.22,1.22,0,0,0,1202.85,120.82Z"/><path class="cls-1" d="M1205.54,109.25a12.58,12.58,0,0,0,2.63.56c.72,0,1.47-.58,1.27-1.37s-1.07-1-1.76-1a16.42,16.42,0,0,0-2.09.41h-.07a.56.56,0,0,0-.48.69A.63.63,0,0,0,1205.54,109.25Z"/><path class="cls-1" d="M1206.33,115.78a1.2,1.2,0,0,0,1.81-.46,1.47,1.47,0,0,0-.82-1.65,10.06,10.06,0,0,0-2.23-.81H1205a.56.56,0,0,0-.77.36.63.63,0,0,0,.11.82A13,13,0,0,0,1206.33,115.78Z"/><path class="cls-1" d="M1190.58,120.25a9.86,9.86,0,0,0,.88-2.18v0a.7.7,0,0,0-.46-1,.54.54,0,0,0-.69.21,18.17,18.17,0,0,0-1.67,1.73,1.24,1.24,0,0,0,.22,1.91A1.4,1.4,0,0,0,1190.58,120.25Z"/><path class="cls-1" d="M1195.71,122.87c.76-.18,1-1.06,1-1.75a13.36,13.36,0,0,0-.35-2.07s0,0,0-.08h0a.37.37,0,0,0,0-.11l0-.09a.77.77,0,0,0-.78-.3l-.11.06-.08,0a.31.31,0,0,0-.11.09.4.4,0,0,0-.1.12l0,.07a.39.39,0,0,0-.06.13l-.36,1.37a4.81,4.81,0,0,0-.26,1.24A1.18,1.18,0,0,0,1195.71,122.87Z"/><path class="cls-1" d="M1215.89,118.63c2-4.15,3.4-8.57,2.15-13.15a.7.7,0,0,0-1.35.37c1.15,4.21-.22,8.29-2,12.1C1214.28,118.76,1215.5,119.45,1215.89,118.63Z"/><path class="cls-1" d="M1216.29,103.93a.7.7,0,0,0,.34-1.36l-.08,0a.7.7,0,0,0-.35,1.35Z"/><path class="cls-1" d="M1660.76,105.08a.72.72,0,0,0,.12,1l46.23,36.08a.61.61,0,0,0,.7.07l.06,0,0,0a.79.79,0,0,0,.18-.14c6.21-6.92,9.35-16.2,7-25.35s-9.93-16-18.12-20.45a27.46,27.46,0,0,0-16-2.92C1672.27,94.15,1665.44,97.55,1660.76,105.08Zm3.75,2c4.46-6,10.16-8.63,17.61-8.74,3.25,0,6.88-.12,10,.87a25.34,25.34,0,0,1,9.21,5.75c2.2,2.06,5.15,5,6.47,7.72a36.76,36.76,0,0,1,2.7,8.42c1.32,6.51-1.75,12.51-5.38,17.69l-37.7-29.42Zm2.43-7.36a19.1,19.1,0,0,1,7.33-3.76c9.37-2.6,17.94-1.67,26,3.88,6.69,4.64,12.26,10.46,13.85,18.72,1.54,8-1.4,16-6.63,22l-1.2-.94c3.73-5.31,6.92-11.53,5.76-18.2a31.93,31.93,0,0,0-3.36-10.25,36.77,36.77,0,0,0-6.43-7.35c-5.92-5.52-12.37-7-20.26-6.9s-13.9,3-18.59,9.33c-.53-.35-1.14-.76-1.26-1.08s.9-1.08,1.43-1.8A21.22,21.22,0,0,1,1666.94,99.76Z"/><path class="cls-1" d="M1692.51,112.93a1.48,1.48,0,0,0-1.75.62,10.94,10.94,0,0,0-1,2.18.59.59,0,0,0,.23.8.58.58,0,0,0,.84,0,18,18,0,0,0,1.94-1.76A1.22,1.22,0,0,0,1692.51,112.93Z"/><path class="cls-1" d="M1680.74,114.63a11.2,11.2,0,0,0-.43-2.65,1.17,1.17,0,0,0-1.73-.69,1.62,1.62,0,0,0-.27,2,18.8,18.8,0,0,0,1.14,1.8h0l0,0a.56.56,0,0,0,.82.21A.62.62,0,0,0,1680.74,114.63Z"/><path class="cls-1" d="M1686.55,111.52a1.22,1.22,0,0,0-1.09-1.53c-.73,0-1.11.73-1.24,1.37a9.42,9.42,0,0,0,.06,2.37h0v.05a.58.58,0,0,0,.62.59.63.63,0,0,0,.73-.4A14.06,14.06,0,0,0,1686.55,111.52Z"/><path class="cls-1" d="M1696.43,124.56a9.72,9.72,0,0,0-2.35,0h0a.71.71,0,0,0-.74.79.55.55,0,0,0,.44.57,20.36,20.36,0,0,0,2.22.92,1.26,1.26,0,0,0,1.71-.9C1697.77,125.17,1697.06,124.72,1696.43,124.56Z"/><path class="cls-1" d="M1697,118.83a1.65,1.65,0,0,0-2-.29,13.27,13.27,0,0,0-1.8,1.09l-.07,0h0a.2.2,0,0,0-.08.08.23.23,0,0,0-.07.07.76.76,0,0,0,0,.83l.09.08.07.06.12.07.15,0h.07a.38.38,0,0,0,.15,0l1.41-.16a5.27,5.27,0,0,0,1.25-.21A1.18,1.18,0,0,0,1697,118.83Z"/><path class="cls-1" d="M1685.72,101.58c-4.58-.33-9.22-.06-13,2.77a.7.7,0,0,0,.84,1.13c3.5-2.61,7.8-2.82,12-2.52C1686.43,103,1686.63,101.64,1685.72,101.58Z"/><path class="cls-1" d="M1671.88,106.55a.7.7,0,0,0-1.39.17v.09a.7.7,0,0,0,1.39-.17Z"/><path class="cls-1" d="M1988,112.11a.72.72,0,0,0-.51-.85L1930.66,97a.64.64,0,0,0-.67.22s0,0,0,0l0,0a1,1,0,0,0-.11.2c-2.88,8.84-2,18.6,3.88,26s15.57,10.67,24.84,11.38a27.49,27.49,0,0,0,15.79-3.79C1981.94,126.76,1986.8,120.9,1988,112.11Zm-4.26-.35c-1.64,7.3-5.8,12-12.57,15.12-3,1.36-6.24,2.89-9.51,3.26A25.31,25.31,0,0,1,1951,128.6c-2.85-1-6.73-2.48-9-4.45a36.84,36.84,0,0,1-5.87-6.6c-3.84-5.42-3.46-12.15-2.23-18.35l46.36,11.66Zm.76,7.72a19.14,19.14,0,0,1-5.18,6.4c-7.52,6.16-15.74,8.78-25.3,6.94-8-1.54-15.44-4.6-20.24-11.52-4.66-6.71-5.17-15.14-2.85-22.82l1.48.37c-1.26,6.36-1.67,13.34,2.1,19a31.87,31.87,0,0,0,7.21,8,36.63,36.63,0,0,0,8.85,4.12c7.65,2.66,14.16,1.43,21.32-1.88s11.51-8.34,13.23-16.05a3.56,3.56,0,0,1,1.59.48c.18.17-.38,1.35-.58,2.22A21.18,21.18,0,0,1,1984.54,119.48Z"/><path class="cls-1" d="M1955.83,117.77c.73.06,1.18-.65,1.35-1.27a10.88,10.88,0,0,0,.07-2.42.59.59,0,0,0-.53-.64.58.58,0,0,0-.78.31,16.41,16.41,0,0,0-1.06,2.39A1.22,1.22,0,0,0,1955.83,117.77Z"/><path class="cls-1" d="M1965.9,111.46a11.78,11.78,0,0,0,1.47,2.25,1.19,1.19,0,0,0,1.87-.07,1.63,1.63,0,0,0-.57-1.92,14,14,0,0,0-1.77-1.19h0l0,0a.56.56,0,0,0-.84.15A.62.62,0,0,0,1965.9,111.46Z"/><path class="cls-1" d="M1961.85,116.65a1.21,1.21,0,0,0,1.61,1,1.5,1.5,0,0,0,.59-1.75,10.32,10.32,0,0,0-1-2.15h0l0,0a.56.56,0,0,0-.8-.29.63.63,0,0,0-.5.66A13.47,13.47,0,0,0,1961.85,116.65Z"/><path class="cls-1" d="M1947.54,108.72a9.51,9.51,0,0,0,2.15-.93h0a.7.7,0,0,0,.35-1,.54.54,0,0,0-.63-.35,19.19,19.19,0,0,0-2.4,0c-.73.11-1.46.7-1.2,1.51A1.41,1.41,0,0,0,1947.54,108.72Z"/><path class="cls-1" d="M1949.33,114.19c.66.41,1.45,0,1.93-.53a15.67,15.67,0,0,0,1.21-1.72l0-.07h0s0-.08,0-.11a.32.32,0,0,0,0-.09.75.75,0,0,0-.34-.76l-.11,0-.09,0-.14,0-.16,0-.06,0a.58.58,0,0,0-.14,0l-1.22.72a5.06,5.06,0,0,0-1.07.7A1.18,1.18,0,0,0,1949.33,114.19Z"/><path class="cls-1" d="M1966.63,125.41c4.32-1.55,8.45-3.68,10.79-7.81a.7.7,0,0,0-1.22-.69c-2.15,3.8-6,5.74-10,7.16C1965.39,124.37,1965.77,125.72,1966.63,125.41Z"/><path class="cls-1" d="M1977.28,115.27a.7.7,0,0,0,1.2-.72l0-.08a.7.7,0,0,0-1.2.72Z"/><path class="cls-1" d="M2087.07,87.74a.72.72,0,0,0-1,0l-42.53,40.36a.62.62,0,0,0-.18.68s0,0,0,.06,0,0,0,.05a1.36,1.36,0,0,0,.11.2c5.92,7.16,14.63,11.64,24,10.65s17.35-7.44,22.92-14.88a27.48,27.48,0,0,0,5.25-15.37C2096.17,100.74,2093.83,93.49,2087.07,87.74Zm-2.57,3.41c5.28,5.3,7,11.33,6,18.71-.43,3.22-.9,6.82-2.34,9.78a25.58,25.58,0,0,1-7.06,8.26c-2.37,1.86-5.7,4.34-8.6,5.24a36.35,36.35,0,0,1-8.72,1.42c-6.63.34-12.11-3.58-16.69-7.94l34.68-32.91Zm6.92,3.49a19.16,19.16,0,0,1,2.63,7.81c1.18,9.65-1,18-7.69,25.08-5.58,5.93-12.16,10.57-20.57,10.92-8.16.34-15.56-3.75-20.8-9.82l1.11-1c4.69,4.47,10.37,8.56,17.14,8.39a32,32,0,0,0,10.64-1.79,36.61,36.61,0,0,0,8.22-5.27c6.34-5,8.78-11.19,9.83-19s-.88-14.19-6.47-19.77c.42-.48.92-1,1.26-1.09s.94,1,1.56,1.68A21.52,21.52,0,0,1,2091.42,94.64Z"/><path class="cls-1" d="M2074.6,118a1.46,1.46,0,0,0-.36-1.82,10.22,10.22,0,0,0-2-1.36.59.59,0,0,0-.82.11.57.57,0,0,0-.16.82,16.18,16.18,0,0,0,1.45,2.18A1.22,1.22,0,0,0,2074.6,118Z"/><path class="cls-1" d="M2074.66,106.09a11.5,11.5,0,0,0,2.69,0,1.18,1.18,0,0,0,.94-1.61,1.64,1.64,0,0,0-1.93-.56,17,17,0,0,0-2,.86h0l-.05,0a.56.56,0,0,0-.32.78A.63.63,0,0,0,2074.66,106.09Z"/><path class="cls-1" d="M2076.88,112.29a1.21,1.21,0,0,0,1.67-.85c.09-.73-.56-1.21-1.16-1.43a9.84,9.84,0,0,0-2.36-.29H2075a.56.56,0,0,0-.67.53.61.61,0,0,0,.29.77A13.53,13.53,0,0,0,2076.88,112.29Z"/><path class="cls-1" d="M2062.52,120.12a10,10,0,0,0,.37-2.31s0,0,0,0a.69.69,0,0,0-.66-.84.54.54,0,0,0-.63.35,17.19,17.19,0,0,0-1.24,2,1.26,1.26,0,0,0,.63,1.83C2061.71,121.36,2062.26,120.72,2062.52,120.12Z"/><path class="cls-1" d="M2068.09,121.55a1.65,1.65,0,0,0,.59-1.93,15.59,15.59,0,0,0-.81-1.94l0-.07v0a.28.28,0,0,0-.07-.09l-.05-.07a.74.74,0,0,0-.82-.12l-.1.07-.07.06a.44.44,0,0,0-.08.11.61.61,0,0,0-.07.14.19.19,0,0,0,0,.07.7.7,0,0,0,0,.14c0,.48,0,.95-.05,1.42a5.4,5.4,0,0,0,0,1.27A1.19,1.19,0,0,0,2068.09,121.55Z"/><path class="cls-1" d="M2086.84,113c1-4.48,1.42-9.11-.82-13.3a.7.7,0,0,0-1.23.66c2.05,3.85,1.62,8.14.7,12.25C2085.29,113.43,2086.64,113.83,2086.84,113Z"/><path class="cls-1" d="M2084,98.52a.7.7,0,0,0,0-1.4h-.09a.7.7,0,0,0,0,1.4Z"/><path class="cls-1" d="M2232.75,114.43a.71.71,0,0,0-.31-.94l-52.35-26.41a.63.63,0,0,0-.71.07l0,0s0,0,0,0a.63.63,0,0,0-.15.17c-4.75,8-6,17.7-1.92,26.22s12.87,13.81,21.75,16.54a27.51,27.51,0,0,0,16.24-.24C2223.59,127.39,2229.62,122.73,2232.75,114.43Zm-4.07-1.27c-3.21,6.76-8.29,10.44-15.58,12-3.18.67-6.72,1.45-10,1.09A25.4,25.4,0,0,1,2193,122.4c-2.56-1.6-6-3.9-7.84-6.33a36.24,36.24,0,0,1-4.28-7.73c-2.56-6.13-.72-12.61,1.84-18.39l42.69,21.53Zm-.95,7.69a19.28,19.28,0,0,1-6.46,5.12c-8.69,4.36-17.28,5.12-26.21,1.22-7.47-3.25-14.06-7.87-17.22-15.67-3.08-7.57-1.73-15.91,2.22-22.89l1.36.69c-2.62,5.92-4.55,12.64-2.11,19a31.88,31.88,0,0,0,5.28,9.4,37.23,37.23,0,0,0,7.73,6c6.89,4.27,13.5,4.49,21.22,2.83s13.06-5.61,16.42-12.76a3.73,3.73,0,0,1,1.45.82c.13.21-.67,1.23-1,2A21.8,21.8,0,0,1,2227.73,120.85Z"/><path class="cls-1" d="M2200.09,112.9c.7.21,1.29-.39,1.59-1a10.4,10.4,0,0,0,.6-2.35.59.59,0,0,0-.38-.74.58.58,0,0,0-.82.13,16.55,16.55,0,0,0-1.56,2.1A1.22,1.22,0,0,0,2200.09,112.9Z"/><path class="cls-1" d="M2211.3,109a12,12,0,0,0,.94,2.52,1.18,1.18,0,0,0,1.83.34,1.63,1.63,0,0,0-.13-2,15.33,15.33,0,0,0-1.47-1.55h0l0,0a.56.56,0,0,0-.85,0A.61.61,0,0,0,2211.3,109Z"/><path class="cls-1" d="M2206.21,113.12c0,.73.56,1.47,1.36,1.29a1.48,1.48,0,0,0,.95-1.58,10,10,0,0,0-.52-2.32h0a.43.43,0,0,1,0,0,.57.57,0,0,0-.72-.45.64.64,0,0,0-.64.53A12.83,12.83,0,0,0,2206.21,113.12Z"/><path class="cls-1" d="M2194,102.25a9.7,9.7,0,0,0,2.31-.43h0a.7.7,0,0,0,.57-.91.53.53,0,0,0-.54-.48A17.45,17.45,0,0,0,2194,100c-.73-.06-1.58.35-1.51,1.21S2193.33,102.21,2194,102.25Z"/><path class="cls-1" d="M2194.52,108a1.64,1.64,0,0,0,2-.1,13.89,13.89,0,0,0,1.56-1.41l.06-.06h0a.53.53,0,0,0,.06-.1l.05-.07a.75.75,0,0,0-.16-.82.53.53,0,0,0-.1-.06l-.08,0-.13,0a.44.44,0,0,0-.16,0h-.07a.39.39,0,0,0-.15,0l-1.35.43a5.71,5.71,0,0,0-1.19.45A1.18,1.18,0,0,0,2194.52,108Z"/><path class="cls-1" d="M2209,122.72c4.55-.57,9.05-1.74,12.24-5.26a.7.7,0,0,0-1-.94c-2.93,3.24-7.11,4.28-11.29,4.8C2208,121.43,2208.05,122.83,2209,122.72Z"/><path class="cls-1" d="M2221.56,115.15a.7.7,0,0,0,1.33-.43l0-.09a.7.7,0,0,0-1.33.44Z"/><path class="cls-1" d="M1821.08,92.75a.72.72,0,0,0-1,0l-42.55,40.35a.61.61,0,0,0-.17.68s0,0,0,.06l0,.05a.81.81,0,0,0,.11.2c5.91,7.16,14.63,11.65,24,10.66s17.35-7.44,22.92-14.88a27.46,27.46,0,0,0,5.26-15.36C1830.18,105.75,1827.84,98.5,1821.08,92.75Zm-2.57,3.4c5.28,5.3,7,11.33,6,18.72-.43,3.22-.9,6.81-2.34,9.77a25.47,25.47,0,0,1-7.06,8.26c-2.37,1.86-5.71,4.34-8.6,5.24a36.85,36.85,0,0,1-8.73,1.42c-6.63.34-12.11-3.59-16.69-7.95l34.7-32.9Zm6.92,3.49a19.41,19.41,0,0,1,2.63,7.81c1.17,9.65-1,18-7.7,25.09-5.59,5.92-12.16,10.56-20.58,10.91-8.16.33-15.56-3.75-20.79-9.83l1.11-1.05c4.69,4.47,10.36,8.56,17.14,8.4a31.9,31.9,0,0,0,10.63-1.79,36.61,36.61,0,0,0,8.22-5.27c6.35-5,8.8-11.19,9.84-19s-.87-14.18-6.46-19.76a3.72,3.72,0,0,1,1.26-1.1c.24-.05.94,1.06,1.56,1.69A21.12,21.12,0,0,1,1825.43,99.64Z"/><path class="cls-1" d="M1808.6,123a1.47,1.47,0,0,0-.35-1.82,10.6,10.6,0,0,0-2-1.36.59.59,0,0,0-.82.11.58.58,0,0,0-.16.82,16.84,16.84,0,0,0,1.45,2.18A1.22,1.22,0,0,0,1808.6,123Z"/><path class="cls-1" d="M1808.67,111.09a11.52,11.52,0,0,0,2.69,0,1.18,1.18,0,0,0,.94-1.61,1.65,1.65,0,0,0-1.93-.56,17.92,17.92,0,0,0-2,.86h0l0,0a.57.57,0,0,0-.33.78A.63.63,0,0,0,1808.67,111.09Z"/><path class="cls-1" d="M1810.88,117.29a1.21,1.21,0,0,0,1.67-.85c.09-.72-.55-1.21-1.16-1.43a9.84,9.84,0,0,0-2.36-.29H1809a.56.56,0,0,0-.67.53.62.62,0,0,0,.29.77A13.93,13.93,0,0,0,1810.88,117.29Z"/><path class="cls-1" d="M1796.52,125.12a10,10,0,0,0,.37-2.32s0,0,0,0a.71.71,0,0,0-.67-.85.55.55,0,0,0-.63.35,17.31,17.31,0,0,0-1.24,2.06,1.25,1.25,0,0,0,.63,1.82C1795.71,126.35,1796.26,125.72,1796.52,125.12Z"/><path class="cls-1" d="M1802.09,126.55a1.65,1.65,0,0,0,.59-1.93,15.59,15.59,0,0,0-.81-1.94l0-.07v0s0-.06-.07-.09a.56.56,0,0,0,0-.08.77.77,0,0,0-.82-.12.7.7,0,0,0-.1.08l-.07.06a.44.44,0,0,0-.08.11.61.61,0,0,0-.07.14.64.64,0,0,0,0,.07.7.7,0,0,0,0,.14c0,.47,0,.94,0,1.42a5.4,5.4,0,0,0,0,1.27A1.19,1.19,0,0,0,1802.09,126.55Z"/><path class="cls-1" d="M1820.84,118c1-4.48,1.42-9.11-.81-13.3a.7.7,0,0,0-1.24.66c2.06,3.86,1.63,8.14.7,12.25C1819.3,118.44,1820.64,118.84,1820.84,118Z"/><path class="cls-1" d="M1818,103.52a.7.7,0,0,0,0-1.4h-.09a.7.7,0,0,0,0,1.4Z"/><path class="cls-1" d="M2296.76,107.08a.72.72,0,0,0,.12,1l46.23,36.08a.61.61,0,0,0,.7.07l.06,0,0,0a.79.79,0,0,0,.18-.14c6.21-6.92,9.35-16.2,7-25.35s-9.93-16-18.12-20.45a27.46,27.46,0,0,0-16-2.92C2308.27,96.15,2301.44,99.55,2296.76,107.08Zm3.75,2c4.46-6,10.16-8.63,17.61-8.74,3.25,0,6.88-.12,10,.87a25.34,25.34,0,0,1,9.21,5.75c2.2,2.06,5.15,5,6.47,7.72a36.76,36.76,0,0,1,2.7,8.42c1.32,6.51-1.75,12.51-5.38,17.69l-37.7-29.42Zm2.43-7.36a19.1,19.1,0,0,1,7.33-3.76c9.37-2.6,17.94-1.67,25.95,3.88,6.69,4.64,12.26,10.46,13.85,18.72,1.54,8-1.4,16-6.63,22l-1.2-.94c3.73-5.31,6.92-11.53,5.76-18.2a31.93,31.93,0,0,0-3.36-10.25,36.77,36.77,0,0,0-6.43-7.35c-5.92-5.52-12.37-7-20.26-6.9s-13.9,3-18.59,9.33c-.53-.35-1.14-.76-1.26-1.08s.9-1.08,1.43-1.8A21.22,21.22,0,0,1,2302.94,101.76Z"/><path class="cls-1" d="M2328.51,114.93a1.48,1.48,0,0,0-1.75.62,10.94,10.94,0,0,0-1.05,2.18.59.59,0,0,0,.23.8.58.58,0,0,0,.84,0,18,18,0,0,0,1.94-1.76A1.22,1.22,0,0,0,2328.51,114.93Z"/><path class="cls-1" d="M2316.74,116.63a11.2,11.2,0,0,0-.43-2.65,1.17,1.17,0,0,0-1.73-.69,1.62,1.62,0,0,0-.27,2,18.8,18.8,0,0,0,1.14,1.8h0l0,0a.56.56,0,0,0,.82.21A.62.62,0,0,0,2316.74,116.63Z"/><path class="cls-1" d="M2322.55,113.52a1.22,1.22,0,0,0-1.09-1.53c-.73,0-1.11.73-1.24,1.37a9.42,9.42,0,0,0,.06,2.37h0v.05a.58.58,0,0,0,.62.59.63.63,0,0,0,.73-.4A14.06,14.06,0,0,0,2322.55,113.52Z"/><path class="cls-1" d="M2332.43,126.56a9.72,9.72,0,0,0-2.35,0h0a.71.71,0,0,0-.74.79.55.55,0,0,0,.44.57,20.36,20.36,0,0,0,2.22.92,1.26,1.26,0,0,0,1.71-.9C2333.77,127.17,2333.06,126.72,2332.43,126.56Z"/><path class="cls-1" d="M2333,120.83a1.65,1.65,0,0,0-2-.29,13.27,13.27,0,0,0-1.8,1.09l-.07,0h0a.2.2,0,0,0-.08.08l-.07.07a.76.76,0,0,0,0,.83l.09.08.07.06.12.07.15,0h.07a.38.38,0,0,0,.15,0l1.41-.16a5.27,5.27,0,0,0,1.25-.21A1.18,1.18,0,0,0,2333,120.83Z"/><path class="cls-1" d="M2321.72,103.58c-4.58-.33-9.22-.06-13,2.77a.7.7,0,0,0,.84,1.13c3.5-2.61,7.8-2.82,12-2.52C2322.43,105,2322.63,103.64,2321.72,103.58Z"/><path class="cls-1" d="M2307.88,108.55a.7.7,0,0,0-1.39.17v.09a.7.7,0,0,0,1.39-.17Z"/></g></g></svg>