<svg xmlns="http://www.w3.org/2000/svg" viewBox="0 0 197.37 264.06"><defs><style>.cls-1{fill:#fff;}</style></defs><title>Asset 1</title><g id="Layer_2" data-name="Layer 2"><g id="Vector_Smart_Object_Image" data-name="Vector Smart Object Image"><path class="cls-1" d="M136.53,114.64a69.07,69.07,0,0,1,15.3,82.78c26.59-44.42,26.7-82,24.72-99.41A18.18,18.18,0,0,0,166,83.45C91.53,50,49.9,81.68,49.9,81.68A129.25,129.25,0,0,1,136.53,114.64Z"/><path class="cls-1" d="M46.06,127.86a68.06,68.06,0,0,1,82.38-15.39C84.37,85.81,47.1,85.58,29.71,87.53A18.18,18.18,0,0,0,15.1,98.24c-32.89,74.86-1.8,116.64-1.8,116.64A130.55,130.55,0,0,1,46.06,127.86Z"/><path class="cls-1" d="M60.26,217.45a69.08,69.08,0,0,1-15.39-82.68c-26.45,44.35-26.57,81.95-24.61,99.4a18.19,18.19,0,0,0,10.58,14.58c74.43,33.4,116,1.75,116,1.75A129.05,129.05,0,0,1,60.26,217.45Z"/><path class="cls-1" d="M183.89,117A130.31,130.31,0,0,1,151,204a68,68,0,0,1-82.29,15.39c44.08,26.71,81.42,26.84,98.8,24.85a18.22,18.22,0,0,0,14.56-10.64C215.37,158.82,183.89,117,183.89,117Z"/><path class="cls-1" d="M150.57,0c-42.38,3-52.82,34.35-55.26,46.24a4,4,0,0,0,3.84,4.81c43.07,1.29,53.33-33.29,55.67-46.36A4,4,0,0,0,150.57,0Z"/></g></g></svg>